<svg class="main-svg" xmlns="http://www.w3.org/2000/svg" xmlns:xlink="http://www.w3.org/1999/xlink" width="500" height="500" style="" viewBox="0 0 500 500"><rect x="0" y="0" width="500" height="500" style="fill: rgb(18, 18, 18); fill-opacity: 1;"/><defs id="defs-881e31"><g class="clips"><clipPath id="clip881e31xyplot" class="plotclip"><rect width="425" height="385"/></clipPath><clipPath class="axesclip" id="clip881e31x"><rect x="65" y="0" width="425" height="500"/></clipPath><clipPath class="axesclip" id="clip881e31y"><rect x="0" y="50" width="500" height="385"/></clipPath><clipPath class="axesclip" id="clip881e31xy"><rect x="65" y="50" width="425" height="385"/></clipPath></g><g class="gradients"/><g class="patterns"/></defs><g class="bglayer"><rect class="bg" x="65" y="50" width="425" height="385" style="fill: rgb(0, 0, 0); fill-opacity: 0; stroke-width: 0;"/></g><g class="layer-below"><g class="imagelayer"/><g class="shapelayer"/></g><g class="cartesianlayer"><g class="subplot xy"><g class="layer-subplot"><g class="shapelayer"/><g class="imagelayer"/></g><g class="minor-gridlayer"><g class="x"/><g class="y"/></g><g class="gridlayer"><g class="x"><path class="xgrid crisp" transform="translate(102.5,0)" d="M0,50v385" style="stroke: rgb(64, 64, 64); stroke-opacity: 1; stroke-width: 1px;"/><path class="xgrid crisp" transform="translate(172.5,0)" d="M0,50v385" style="stroke: rgb(64, 64, 64); stroke-opacity: 1; stroke-width: 1px;"/><path class="xgrid crisp" transform="translate(242.5,0)" d="M0,50v385" style="stroke: rgb(64, 64, 64); stroke-opacity: 1; stroke-width: 1px;"/><path class="xgrid crisp" transform="translate(312.5,0)" d="M0,50v385" style="stroke: rgb(64, 64, 64); stroke-opacity: 1; stroke-width: 1px;"/><path class="xgrid crisp" transform="translate(382.5,0)" d="M0,50v385" style="stroke: rgb(64, 64, 64); stroke-opacity: 1; stroke-width: 1px;"/><path class="xgrid crisp" transform="translate(452.5,0)" d="M0,50v385" style="stroke: rgb(64, 64, 64); stroke-opacity: 1; stroke-width: 1px;"/></g><g class="y"><path class="ygrid crisp" transform="translate(0,417.5)" d="M65,0h425" style="stroke: rgb(64, 64, 64); stroke-opacity: 1; stroke-width: 1px;"/><path class="ygrid crisp" transform="translate(0,347.5)" d="M65,0h425" style="stroke: rgb(64, 64, 64); stroke-opacity: 1; stroke-width: 1px;"/><path class="ygrid crisp" transform="translate(0,277.5)" d="M65,0h425" style="stroke: rgb(64, 64, 64); stroke-opacity: 1; stroke-width: 1px;"/><path class="ygrid crisp" transform="translate(0,207.5)" d="M65,0h425" style="stroke: rgb(64, 64, 64); stroke-opacity: 1; stroke-width: 1px;"/><path class="ygrid crisp" transform="translate(0,137.5)" d="M65,0h425" style="stroke: rgb(64, 64, 64); stroke-opacity: 1; stroke-width: 1px;"/><path class="ygrid crisp" transform="translate(0,67.5)" d="M65,0h425" style="stroke: rgb(64, 64, 64); stroke-opacity: 1; stroke-width: 1px;"/></g></g><g class="zerolinelayer"/><path class="xlines-below"/><path class="ylines-below"/><g class="overlines-below"/><g class="xaxislayer-below"/><g class="yaxislayer-below"/><g class="overaxes-below"/><g class="plot" transform="translate(65,50)" clip-path="url(#clip881e31xyplot)"><g class="scatterlayer mlayer"><g class="trace scatter tracef04e41" style="stroke-miterlimit: 2; opacity: 1;"><g class="fills"/><g class="errorbars"/><g class="lines"><path class="js-line" d="M387.5,17.5L345.51,18.1L339.92,18.3L337.85,18.5L332.06,18.7L308.27,19.3L302.48,19.5L299.17,19.71L292.97,20.31L288,20.91L287.38,21.31L276,21.71L271.04,22.51L270.63,22.51L265.04,23.31L258.63,23.91L258.22,24.12L240.84,26.12L240.01,26.72L237.74,27.32L236.7,28.32L235.25,29.73L229.05,30.33L228.22,30.33L228.22,30.53L227.39,31.93L224.91,33.34L224.91,33.54L224.29,34.34L223.88,34.54L222.84,35.54L222.22,36.14L217.67,40.95L217.46,41.76L217.05,43.16L216.22,43.16L213.12,43.56L213.12,43.76L212.91,44.56L212.29,45.56L211.47,45.56L208.98,45.97L208.78,45.97L206.91,46.57L206.91,46.77L199.26,47.37L199.26,47.57L197.19,47.97L196.16,47.97L196.16,48.17L195.95,48.17L195.12,48.17L182.09,48.77L182.09,48.97L176.92,49.57L176.71,49.77L166.37,50.38L166.16,50.58L164.1,50.58L162.85,51.98L162.85,52.18L162.44,52.18L162.03,52.18L159.96,53.18L159.34,53.38L157.27,55.59L156.44,55.79L155.82,57.39L155.61,57.39L154.79,57.39L153.55,58.99L152.51,59.4L151.27,61L150.65,61L149.41,62.8L148.17,63.2L147.55,63.61L143.62,65.61L142.58,66.41L142.17,66.41L140.93,68.42L140.51,68.42L139.69,70.02L138.86,70.22L138.24,71.22L137.41,71.82L130.17,85.46L129.96,85.46L123.55,96.88L122.93,98.89L115.9,112.32L112.38,115.12L108.24,120.34L107.83,120.34L107.21,121.34L107,121.54L98.52,135.97L98.32,135.97L98.32,136.17L92.94,144.79L92.52,144.79L91.08,149.2L90.87,149.2L90.66,150.8L88.18,154.21L87.35,157.62L86.94,159.42L85.7,160.63L76.8,175.26L71.84,185.08L71.84,185.48L65.63,199.32L59.84,216.35L59.84,217.16L59.84,218.76L58.39,220.56L58.19,223.17L56.53,225.78L55.08,234.6L55.08,235.4L52.6,247.23L51.36,249.23L51.15,250.23L49.7,251.64L49.5,251.64L49.5,251.84L49.5,253.44L48.05,255.84L47.43,257.85L47.02,264.46L46.39,266.27L46.19,267.67L46.19,269.68L45.36,271.48L45.36,273.28L44.74,277.09L44.33,278.5L43.71,282.31L43.5,282.71L42.88,295.74L42.67,299.95L42.05,307.96L41.84,308.36L39.36,340.04L39.36,340.44L38.95,347.86L38.95,348.46L38.53,351.66L38.12,354.67L37.5,367.5" style="vector-effect: none; fill: none; stroke: rgb(67, 164, 172); stroke-opacity: 1; stroke-width: 2px; opacity: 1;"/></g><g class="points"/><g class="text"/></g><g class="trace scatter trace9581bf" style="stroke-miterlimit: 2; opacity: 1;"><g class="fills"/><g class="errorbars"/><g class="lines"><path class="js-line" d="M387.5,17.5L368.88,17.5L368.88,19.3L365.16,19.3L365.16,21.11L324.2,21.11L324.2,22.91L320.48,24.72L316.76,24.72L313.03,24.72L309.31,26.52L307.45,28.32L307.45,30.13L300,33.74L292.55,33.74L286.97,35.54L277.66,37.35L270.21,39.15L264.63,39.15L249.73,39.15L249.73,40.95L240.43,40.95L240.43,42.76L234.84,42.76L234.84,46.37L221.81,46.37L219.95,48.17L214.36,48.17L214.36,51.78L214.36,53.58L212.5,53.58L206.91,53.58L206.91,55.39L199.47,55.39L199.47,57.19L197.61,57.19L197.61,58.99L184.57,58.99L184.57,62.6L180.85,62.6L180.85,64.41L178.99,64.41L178.99,66.21L175.27,69.82L175.27,71.62L173.4,71.62L173.4,73.43L171.54,73.43L171.54,77.04L167.82,77.04L167.82,78.84L164.1,82.45L164.1,84.25L160.37,84.25L158.51,98.69L158.51,100.49L154.79,118.53L147.34,136.57L145.48,136.57L141.76,136.57L141.76,143.79L136.17,160.03L134.31,160.03L126.86,174.46L125,176.26L121.28,178.07L117.55,178.07L110.11,188.89L104.52,203.32L98.94,210.54L91.49,228.58L78.46,241.21L78.46,243.02L76.6,243.02L74.73,244.82L74.73,248.43L72.87,248.43L72.87,253.84L67.29,253.84L67.29,270.08L65.43,270.08L59.84,270.08L57.98,271.88L57.98,273.69L56.12,273.69L54.26,277.29L54.26,279.1L54.26,280.9L52.39,280.9L52.39,284.51L48.67,284.51L48.67,286.31L46.81,286.31L44.95,286.31L44.95,288.12L44.95,324.2L43.09,327.81L43.09,342.24L41.22,345.85L41.22,356.68L39.36,358.48L37.5,358.48L37.5,362.09L37.5,367.5" style="vector-effect: none; fill: none; stroke: rgb(250, 152, 96); stroke-opacity: 1; stroke-width: 2px; opacity: 1;"/></g><g class="points"/><g class="text"/></g></g></g><g class="overplot"/><path class="xlines-above crisp" d="" style="fill: none; stroke-width: 1px; stroke: rgb(0, 0, 0); stroke-opacity: 0;"/><path class="ylines-above crisp" d="" style="fill: none; stroke-width: 1px; stroke: rgb(0, 0, 0); stroke-opacity: 0;"/><g class="overlines-above"/><g class="xaxislayer-above"><path class="xtick ticks crisp" d="M0,436v5" transform="translate(102.5,0)" style="stroke: rgb(0, 0, 0); stroke-opacity: 0; stroke-width: 1px;"/><path class="xtick ticks crisp" d="M0,436v5" transform="translate(172.5,0)" style="stroke: rgb(0, 0, 0); stroke-opacity: 0; stroke-width: 1px;"/><path class="xtick ticks crisp" d="M0,436v5" transform="translate(242.5,0)" style="stroke: rgb(0, 0, 0); stroke-opacity: 0; stroke-width: 1px;"/><path class="xtick ticks crisp" d="M0,436v5" transform="translate(312.5,0)" style="stroke: rgb(0, 0, 0); stroke-opacity: 0; stroke-width: 1px;"/><path class="xtick ticks crisp" d="M0,436v5" transform="translate(382.5,0)" style="stroke: rgb(0, 0, 0); stroke-opacity: 0; stroke-width: 1px;"/><path class="xtick ticks crisp" d="M0,436v5" transform="translate(452.5,0)" style="stroke: rgb(0, 0, 0); stroke-opacity: 0; stroke-width: 1px;"/><g class="xtick"><text text-anchor="middle" x="0" y="460.2" transform="translate(102.5,0)" style="font-family: Geist; font-size: 16px; fill: rgb(255, 255, 255); fill-opacity: 1; white-space: pre; opacity: 1;">0</text></g><g class="xtick"><text text-anchor="middle" x="0" y="460.2" style="font-family: Geist; font-size: 16px; fill: rgb(255, 255, 255); fill-opacity: 1; white-space: pre; opacity: 1;" transform="translate(172.5,0)">0.2</text></g><g class="xtick"><text text-anchor="middle" x="0" y="460.2" style="font-family: Geist; font-size: 16px; fill: rgb(255, 255, 255); fill-opacity: 1; white-space: pre; opacity: 1;" transform="translate(242.5,0)">0.4</text></g><g class="xtick"><text text-anchor="middle" x="0" y="460.2" style="font-family: Geist; font-size: 16px; fill: rgb(255, 255, 255); fill-opacity: 1; white-space: pre; opacity: 1;" transform="translate(312.5,0)">0.6</text></g><g class="xtick"><text text-anchor="middle" x="0" y="460.2" style="font-family: Geist; font-size: 16px; fill: rgb(255, 255, 255); fill-opacity: 1; white-space: pre; opacity: 1;" transform="translate(382.5,0)">0.8</text></g><g class="xtick"><text text-anchor="middle" x="0" y="460.2" style="font-family: Geist; font-size: 16px; fill: rgb(255, 255, 255); fill-opacity: 1; white-space: pre; opacity: 1;" transform="translate(452.5,0)">1</text></g></g><g class="yaxislayer-above"><path class="ytick ticks crisp" d="M64,0h-5" transform="translate(0,417.5)" style="stroke: rgb(0, 0, 0); stroke-opacity: 0; stroke-width: 1px;"/><path class="ytick ticks crisp" d="M64,0h-5" transform="translate(0,347.5)" style="stroke: rgb(0, 0, 0); stroke-opacity: 0; stroke-width: 1px;"/><path class="ytick ticks crisp" d="M64,0h-5" transform="translate(0,277.5)" style="stroke: rgb(0, 0, 0); stroke-opacity: 0; stroke-width: 1px;"/><path class="ytick ticks crisp" d="M64,0h-5" transform="translate(0,207.5)" style="stroke: rgb(0, 0, 0); stroke-opacity: 0; stroke-width: 1px;"/><path class="ytick ticks crisp" d="M64,0h-5" transform="translate(0,137.5)" style="stroke: rgb(0, 0, 0); stroke-opacity: 0; stroke-width: 1px;"/><path class="ytick ticks crisp" d="M64,0h-5" transform="translate(0,67.5)" style="stroke: rgb(0, 0, 0); stroke-opacity: 0; stroke-width: 1px;"/><g class="ytick"><text text-anchor="end" x="55.8" y="5.6" transform="translate(0,417.5)" style="font-family: Geist; font-size: 16px; fill: rgb(255, 255, 255); fill-opacity: 1; white-space: pre; opacity: 1;">0</text></g><g class="ytick"><text text-anchor="end" x="55.8" y="5.6" style="font-family: Geist; font-size: 16px; fill: rgb(255, 255, 255); fill-opacity: 1; white-space: pre; opacity: 1;" transform="translate(0,347.5)">0.2</text></g><g class="ytick"><text text-anchor="end" x="55.8" y="5.6" style="font-family: Geist; font-size: 16px; fill: rgb(255, 255, 255); fill-opacity: 1; white-space: pre; opacity: 1;" transform="translate(0,277.5)">0.4</text></g><g class="ytick"><text text-anchor="end" x="55.8" y="5.6" style="font-family: Geist; font-size: 16px; fill: rgb(255, 255, 255); fill-opacity: 1; white-space: pre; opacity: 1;" transform="translate(0,207.5)">0.6</text></g><g class="ytick"><text text-anchor="end" x="55.8" y="5.6" style="font-family: Geist; font-size: 16px; fill: rgb(255, 255, 255); fill-opacity: 1; white-space: pre; opacity: 1;" transform="translate(0,137.5)">0.8</text></g><g class="ytick"><text text-anchor="end" x="55.8" y="5.6" style="font-family: Geist; font-size: 16px; fill: rgb(255, 255, 255); fill-opacity: 1; white-space: pre; opacity: 1;" transform="translate(0,67.5)">1</text></g></g><g class="overaxes-above"/></g></g><g class="polarlayer"/><g class="smithlayer"/><g class="ternarylayer"/><g class="geolayer"/><g class="funnelarealayer"/><g class="pielayer"/><g class="iciclelayer"/><g class="treemaplayer"/><g class="sunburstlayer"/><g class="glimages"/><defs id="topdefs-881e31"><g class="clips"/><clipPath id="legend881e31"><rect width="159" height="79" x="0" y="0"/></clipPath></defs><g class="layer-above"><g class="imagelayer"/><g class="shapelayer"><g class="shape-group" data-index="0" clip-path="url(#clip881e31xy)"><path data-index="0" fill-rule="evenodd" d="M85,435L470,50" style="opacity: 1; stroke: rgb(255, 255, 255); stroke-opacity: 0.658824; fill: rgb(0, 0, 0); fill-opacity: 0; stroke-dasharray: 3px, 3px; stroke-width: 2px;"/></g></g></g><g class="infolayer"><g class="legend" pointer-events="all" transform="translate(331,356)"><rect class="bg" shape-rendering="crispEdges" style="stroke: rgb(255, 255, 255); stroke-opacity: 0; fill: rgb(255, 255, 255); fill-opacity: 0; stroke-width: 0px;" width="159" height="79" x="0" y="0"/><g class="scrollbox" transform="" clip-path="url(#legend881e31)"><text class="legendtitletext" text-anchor="start" x="2" y="20.8" style="font-family: Geist; font-size: 16px; fill: rgb(255, 255, 255); fill-opacity: 1; white-space: pre;">Sample (AUC)</text><g class="groups" transform=""><g class="traces" transform="translate(0,37.7)" style="opacity: 1;"><text class="legendtext" text-anchor="start" x="40" y="6.24" style="font-family: Geist; font-size: 16px; fill: rgb(255, 255, 255); fill-opacity: 1; white-space: pre;">Training (0.849)</text><g class="layers" style="opacity: 1;"><g class="legendfill"/><g class="legendlines"><path class="js-line" d="M5,0h30" style="fill: none; stroke: rgb(67, 164, 172); stroke-opacity: 1; stroke-width: 2px;"/></g><g class="legendsymbols"><g class="legendpoints"/></g></g><rect class="legendtoggle" x="0" y="-11.9" width="153.546875" height="23.8" style="fill: rgb(0, 0, 0); fill-opacity: 0;"/></g></g><g class="groups" transform=""><g class="traces" transform="translate(0,61.5)" style="opacity: 1;"><text class="legendtext" text-anchor="start" x="40" y="6.24" style="font-family: Geist; font-size: 16px; fill: rgb(255, 255, 255); fill-opacity: 1; white-space: pre;">Test (0.764)</text><g class="layers" style="opacity: 1;"><g class="legendfill"/><g class="legendlines"><path class="js-line" d="M5,0h30" style="fill: none; stroke: rgb(250, 152, 96); stroke-opacity: 1; stroke-width: 2px;"/></g><g class="legendsymbols"><g class="legendpoints"/></g></g><rect class="legendtoggle" x="0" y="-11.9" width="153.546875" height="23.8" style="fill: rgb(0, 0, 0); fill-opacity: 0;"/></g></g></g><rect class="scrollbar" rx="20" ry="3" width="0" height="0" style="fill: rgb(128, 139, 164); fill-opacity: 1;" x="0" y="0"/></g><g class="g-gtitle"><text class="gtitle" x="65" y="25" text-anchor="start" dy="0em" style="font-family: Geist; font-size: 16px; fill: rgb(255, 255, 255); opacity: 1; font-weight: normal; white-space: pre;"><tspan style="font-weight:bold">GLMNET</tspan></text></g><g class="g-xtitle"><text class="xtitle" x="277.5" y="493" text-anchor="middle" style="font-family: Geist; font-size: 16px; fill: rgb(255, 255, 255); opacity: 1; font-weight: normal; white-space: pre;">False Positive Rate</text></g><g class="g-ytitle"><text class="ytitle" transform="rotate(-90,23,242.5)" x="23" y="242.5" text-anchor="middle" style="font-family: Geist; font-size: 16px; fill: rgb(255, 255, 255); opacity: 1; font-weight: normal; white-space: pre;">True Positive Rate</text></g></g></svg>