<svg class="main-svg" xmlns="http://www.w3.org/2000/svg" xmlns:xlink="http://www.w3.org/1999/xlink" width="500" height="500" style="" viewBox="0 0 500 500"><rect x="0" y="0" width="500" height="500" style="fill: rgb(18, 18, 18); fill-opacity: 1;"/><defs id="defs-bb385f"><g class="clips"><clipPath id="clipbb385fxyplot" class="plotclip"><rect width="425" height="385"/></clipPath><clipPath class="axesclip" id="clipbb385fx"><rect x="65" y="0" width="425" height="500"/></clipPath><clipPath class="axesclip" id="clipbb385fy"><rect x="0" y="50" width="500" height="385"/></clipPath><clipPath class="axesclip" id="clipbb385fxy"><rect x="65" y="50" width="425" height="385"/></clipPath></g><g class="gradients"/><g class="patterns"/></defs><g class="bglayer"><rect class="bg" x="65" y="50" width="425" height="385" style="fill: rgb(0, 0, 0); fill-opacity: 0; stroke-width: 0;"/></g><g class="layer-below"><g class="imagelayer"/><g class="shapelayer"/></g><g class="cartesianlayer"><g class="subplot xy"><g class="layer-subplot"><g class="shapelayer"/><g class="imagelayer"/></g><g class="minor-gridlayer"><g class="x"/><g class="y"/></g><g class="gridlayer"><g class="x"><path class="xgrid crisp" transform="translate(102.5,0)" d="M0,50v385" style="stroke: rgb(64, 64, 64); stroke-opacity: 1; stroke-width: 1px;"/><path class="xgrid crisp" transform="translate(172.5,0)" d="M0,50v385" style="stroke: rgb(64, 64, 64); stroke-opacity: 1; stroke-width: 1px;"/><path class="xgrid crisp" transform="translate(242.5,0)" d="M0,50v385" style="stroke: rgb(64, 64, 64); stroke-opacity: 1; stroke-width: 1px;"/><path class="xgrid crisp" transform="translate(312.5,0)" d="M0,50v385" style="stroke: rgb(64, 64, 64); stroke-opacity: 1; stroke-width: 1px;"/><path class="xgrid crisp" transform="translate(382.5,0)" d="M0,50v385" style="stroke: rgb(64, 64, 64); stroke-opacity: 1; stroke-width: 1px;"/><path class="xgrid crisp" transform="translate(452.5,0)" d="M0,50v385" style="stroke: rgb(64, 64, 64); stroke-opacity: 1; stroke-width: 1px;"/></g><g class="y"><path class="ygrid crisp" transform="translate(0,417.5)" d="M65,0h425" style="stroke: rgb(64, 64, 64); stroke-opacity: 1; stroke-width: 1px;"/><path class="ygrid crisp" transform="translate(0,347.5)" d="M65,0h425" style="stroke: rgb(64, 64, 64); stroke-opacity: 1; stroke-width: 1px;"/><path class="ygrid crisp" transform="translate(0,277.5)" d="M65,0h425" style="stroke: rgb(64, 64, 64); stroke-opacity: 1; stroke-width: 1px;"/><path class="ygrid crisp" transform="translate(0,207.5)" d="M65,0h425" style="stroke: rgb(64, 64, 64); stroke-opacity: 1; stroke-width: 1px;"/><path class="ygrid crisp" transform="translate(0,137.5)" d="M65,0h425" style="stroke: rgb(64, 64, 64); stroke-opacity: 1; stroke-width: 1px;"/><path class="ygrid crisp" transform="translate(0,67.5)" d="M65,0h425" style="stroke: rgb(64, 64, 64); stroke-opacity: 1; stroke-width: 1px;"/></g></g><g class="zerolinelayer"/><path class="xlines-below"/><path class="ylines-below"/><g class="overlines-below"/><g class="xaxislayer-below"/><g class="yaxislayer-below"/><g class="overaxes-below"/><g class="plot" transform="translate(65,50)" clip-path="url(#clipbb385fxyplot)"><g class="scatterlayer mlayer"><g class="trace scatter trace806380" style="stroke-miterlimit: 2; opacity: 1;"><g class="fills"/><g class="errorbars"/><g class="lines"><path class="js-line" d="M387.5,17.5L359.99,18.1L359.99,18.3L327.1,18.9L326.27,19.1L298.97,19.71L298.14,19.91L298.14,20.11L297.31,20.31L288.42,20.91L286.97,21.11L278.69,21.71L278.69,21.91L278.69,22.11L278.28,22.11L277.87,22.11L276,22.51L275.8,22.91L271.45,23.51L270.63,23.71L267.73,24.32L267.73,24.52L265.25,25.12L264.83,25.32L260.49,25.92L260.49,26.12L248.91,26.72L248.91,26.92L241.46,27.32L241.46,27.52L239.6,27.92L232.77,28.32L230.91,28.93L226.77,29.53L226.36,29.73L218.29,30.33L218.29,30.53L217.88,31.13L217.67,31.13L215.6,31.33L215.4,31.93L214.98,31.93L210.85,32.33L209.4,32.53L209.4,32.73L208.57,33.34L199.67,33.94L199.47,34.14L196.57,34.74L196.57,34.94L195.74,35.14L195.74,35.54L195.74,35.74L192.85,36.14L192.85,36.34L192.85,36.54L192.23,36.74L192.23,37.14L192.02,37.35L190.99,37.95L190.99,38.15L190.78,38.15L187.88,38.95L187.06,39.35L186.85,39.75L186.85,39.95L186.44,39.95L186.02,39.95L181.68,40.55L181.47,40.75L180.64,41.15L180.64,41.55L179.61,42.16L178.99,42.36L177.13,42.96L176.92,43.16L175.68,43.56L175.68,43.76L175.68,43.96L175.47,43.96L175.47,44.16L172.78,44.96L172.78,45.16L172.16,45.16L171.96,45.16L169.89,45.76L169.89,45.97L167.61,46.37L167.61,46.57L167.61,46.77L164.92,48.97L164.92,49.17L163.48,49.57L163.27,49.57L162.44,49.97L162.44,50.17L162.23,50.58L162.03,51.58L161.82,51.58L161.41,51.58L160.17,51.98L159.75,51.98L158.72,52.98L158.3,52.98L157.68,53.38L157.68,53.58L157.68,53.78L156.44,53.98L156.24,53.98L155.61,55.99L154.79,56.59L154.79,56.79L154.37,56.79L153.96,56.79L153.55,57.59L153.13,57.79L151.27,58.79L150.86,58.99L150.24,60L149.82,60L149.82,60.2L149.62,60.2L149,60.2L148.37,62.2L147.96,62.2L147.96,62.4L146.72,62.6L146.72,62.8L146.51,62.8L145.89,62.8L144.44,63.4L144.44,63.61L144.24,64.21L143.82,64.21L143.2,64.81L140.72,67.21L140.51,67.21L140.1,68.02L139.89,68.02L139.69,68.02L138.24,68.42L138.24,68.62L138.24,68.82L137.62,69.82L137.41,69.82L137.41,70.42L136.79,70.42L136.58,70.62L134.1,72.43L133.69,72.43L133.48,73.03L133.07,73.03L132.86,73.03L131.21,73.63L131.21,73.83L131.21,74.03L130.59,74.03L130.38,74.23L129.76,75.43L129.34,75.43L127.69,76.43L127.07,76.43L127.07,76.84L126.86,76.84L126.24,76.84L125.62,77.04L125.62,77.24L125.41,77.64L123.97,78.24L123.97,78.64L123.35,79.84L123.14,80.04L122.31,80.44L122.31,80.64L122.31,80.84L121.9,81.65L121.69,81.65L121.48,81.85L120.45,82.25L120.45,82.45L120.45,82.65L119.83,83.25L119.62,83.45L119.21,85.05L119,85.05L118.17,85.05L115.48,89.46L115.28,89.66L114.86,90.47L114.66,90.47L114.04,90.67L113.83,92.67L113.21,92.87L113,95.28L112.59,95.28L112.17,95.88L111.76,96.88L111.35,97.08L110.31,97.68L109.69,97.88L109.07,98.89L108.87,98.89L104.11,103.7L104.11,104.1L103.49,106.5L103.49,106.9L103.28,108.31L102.87,108.31L102.66,108.31L101.83,108.51L101.21,109.11L100.59,110.11L100.38,110.11L100.18,110.71L99.97,110.71L99.56,110.71L94.18,119.73L93.76,119.93L92.32,121.34L92.32,121.54L91.7,122.74L91.28,123.34L90.66,126.35L90.46,126.35L89.83,128.35L89.63,128.55L88.8,129.16L88.8,129.36L87.97,129.96L87.97,130.16L87.56,131.76L87.35,131.76L87.15,131.96L86.94,132.96L86.52,132.96L86.32,132.96L85.7,133.77L85.49,133.97L84.66,134.57L84.66,134.77L84.25,137.17L83.84,137.77L82.8,139.18L82.59,139.18L81.97,141.38L81.77,141.38L81.15,141.78L81.15,142.39L80.73,144.19L80.32,144.39L79.28,145.39L79.08,145.39L78.87,146.19L78.25,146.8L77.63,150L77.42,150.2L77.01,150.6L77.01,150.8L77.01,151.21L76.8,151.21L76.8,151.81L76.6,152.01L75.98,152.81L75.77,152.81L75.35,154.21L75.35,154.61L74.73,156.62L74.53,156.62L71.63,163.03L71.63,163.43L71.42,164.03L71.22,164.03L70.8,164.24L70.6,164.24L70.6,164.64L70.6,165.04L69.98,168.04L69.36,168.85L68.94,168.85L68.94,169.45L68.94,169.65L68.94,170.25L68.32,170.25L68.11,170.25L67.49,173.66L67.29,173.66L66.67,175.86L66.46,176.66L65.84,178.47L65.63,178.67L65.01,180.07L64.6,180.27L63.98,183.28L63.77,183.48L63.15,184.88L62.94,184.88L62.53,185.48L62.53,185.68L62.12,186.29L62.12,186.49L61.7,189.89L61.5,189.89L61.29,190.09L58.81,196.51L58.81,196.71L57.77,199.72L57.77,199.92L57.36,203.93L57.15,203.93L56.94,204.13L56.32,208.54L56.12,208.54L55.5,210.14L55.29,210.14L54.67,215.15L54.46,215.55L54.05,215.95L54.05,216.35L53.43,220.36L53.22,220.56L52.6,221.97L52.39,222.77L51.98,225.58L51.77,225.58L51.57,225.58L50.95,226.98L50.74,226.98L50.12,233.59L49.91,233.59L49.29,235L49.29,236L48.88,241.01L48.67,241.01L48.46,241.21L48.05,244.62L47.84,244.62L47.64,244.62L47.02,249.43L46.81,249.63L46.19,254.04L45.98,254.44L45.36,255.64L45.15,255.84L44.53,266.07L44.33,266.07L43.71,270.48L43.5,270.48L42.88,272.08L42.67,272.08L42.05,279.5L41.84,279.7L41.22,290.12L41.02,290.32L40.4,303.95L40.19,304.56L39.57,322.8L39.36,323.6L38.74,332.42L38.53,332.42L37.91,357.48L37.71,358.08L37.5,367.5" style="vector-effect: none; fill: none; stroke: rgb(67, 164, 172); stroke-opacity: 1; stroke-width: 2px; opacity: 1;"/></g><g class="points"/><g class="text"/></g><g class="trace scatter trace0cee90" style="stroke-miterlimit: 2; opacity: 1;"><g class="fills"/><g class="errorbars"/><g class="lines"><path class="js-line" d="M387.5,17.5L352.13,17.5L352.13,19.3L344.68,19.3L344.68,21.11L342.82,21.11L342.82,22.91L305.59,22.91L305.59,26.52L298.14,26.52L298.14,28.32L290.69,28.32L290.69,30.13L283.24,30.13L283.24,31.93L283.24,33.74L281.38,33.74L279.52,33.74L279.52,35.54L279.52,37.35L277.66,37.35L260.9,37.35L255.32,39.15L246.01,39.15L246.01,40.95L246.01,42.76L244.15,42.76L221.81,42.76L221.81,44.56L210.64,44.56L210.64,46.37L208.78,46.37L208.78,48.17L205.05,48.17L205.05,49.97L203.19,49.97L203.19,51.78L197.61,51.78L197.61,53.58L197.61,55.39L195.74,55.39L193.88,55.39L193.88,58.99L190.16,58.99L190.16,60.8L178.99,60.8L178.99,62.6L173.4,62.6L173.4,64.41L173.4,69.82L171.54,69.82L169.68,69.82L169.68,71.62L169.68,75.23L167.82,77.04L164.1,77.04L164.1,78.84L162.23,78.84L162.23,80.64L162.23,91.47L160.37,91.47L158.51,91.47L158.51,93.27L156.65,93.27L156.65,95.08L152.93,95.08L152.93,96.88L149.2,96.88L149.2,102.29L149.2,105.9L147.34,105.9L147.34,107.71L145.48,107.71L143.62,107.71L143.62,109.51L143.62,113.12L141.76,113.12L139.89,113.12L139.89,114.92L138.03,114.92L138.03,116.73L132.45,116.73L132.45,118.53L132.45,122.14L130.59,122.14L130.59,129.36L128.72,129.36L128.72,134.77L126.86,134.77L125,134.77L125,136.57L125,140.18L123.14,140.18L121.28,140.18L117.55,141.98L117.55,145.59L115.69,145.59L115.69,147.4L113.83,147.4L113.83,149.2L110.11,149.2L110.11,151.01L108.24,151.01L108.24,154.61L106.38,154.61L106.38,158.22L104.52,158.22L102.66,158.22L102.66,160.03L102.66,163.63L100.8,163.63L98.94,163.63L98.94,165.44L98.94,178.07L97.07,178.07L97.07,185.28L95.21,185.28L93.35,187.09L91.49,187.09L91.49,210.54L89.63,210.54L89.63,212.35L87.77,212.35L85.9,212.35L85.9,214.15L85.9,215.95L84.04,219.56L84.04,237.6L82.18,237.6L82.18,250.23L80.32,250.23L80.32,253.84L78.46,253.84L78.46,257.45L76.6,257.45L74.73,257.45L74.73,259.25L74.73,262.86L72.87,262.86L72.87,275.49L71.01,275.49L71.01,277.29L69.15,277.29L67.29,277.29L67.29,279.1L67.29,282.71L65.43,282.71L65.43,293.53L63.56,293.53L61.7,293.53L61.7,295.34L61.7,297.14L59.84,297.14L56.12,297.14L56.12,298.94L56.12,300.75L54.26,300.75L52.39,300.75L52.39,302.55L48.67,302.55L48.67,304.36L48.67,313.38L46.81,313.38L46.81,318.79L44.95,318.79L44.95,320.59L43.09,320.59L43.09,327.81L41.22,327.81L41.22,347.65L39.36,347.65L39.36,353.07L37.5,353.07L37.5,367.5" style="vector-effect: none; fill: none; stroke: rgb(250, 152, 96); stroke-opacity: 1; stroke-width: 2px; opacity: 1;"/></g><g class="points"/><g class="text"/></g></g></g><g class="overplot"/><path class="xlines-above crisp" d="" style="fill: none; stroke-width: 1px; stroke: rgb(0, 0, 0); stroke-opacity: 0;"/><path class="ylines-above crisp" d="" style="fill: none; stroke-width: 1px; stroke: rgb(0, 0, 0); stroke-opacity: 0;"/><g class="overlines-above"/><g class="xaxislayer-above"><path class="xtick ticks crisp" d="M0,436v5" transform="translate(102.5,0)" style="stroke: rgb(0, 0, 0); stroke-opacity: 0; stroke-width: 1px;"/><path class="xtick ticks crisp" d="M0,436v5" transform="translate(172.5,0)" style="stroke: rgb(0, 0, 0); stroke-opacity: 0; stroke-width: 1px;"/><path class="xtick ticks crisp" d="M0,436v5" transform="translate(242.5,0)" style="stroke: rgb(0, 0, 0); stroke-opacity: 0; stroke-width: 1px;"/><path class="xtick ticks crisp" d="M0,436v5" transform="translate(312.5,0)" style="stroke: rgb(0, 0, 0); stroke-opacity: 0; stroke-width: 1px;"/><path class="xtick ticks crisp" d="M0,436v5" transform="translate(382.5,0)" style="stroke: rgb(0, 0, 0); stroke-opacity: 0; stroke-width: 1px;"/><path class="xtick ticks crisp" d="M0,436v5" transform="translate(452.5,0)" style="stroke: rgb(0, 0, 0); stroke-opacity: 0; stroke-width: 1px;"/><g class="xtick"><text text-anchor="middle" x="0" y="460.2" transform="translate(102.5,0)" style="font-family: Geist; font-size: 16px; fill: rgb(255, 255, 255); fill-opacity: 1; white-space: pre; opacity: 1;">0</text></g><g class="xtick"><text text-anchor="middle" x="0" y="460.2" style="font-family: Geist; font-size: 16px; fill: rgb(255, 255, 255); fill-opacity: 1; white-space: pre; opacity: 1;" transform="translate(172.5,0)">0.2</text></g><g class="xtick"><text text-anchor="middle" x="0" y="460.2" style="font-family: Geist; font-size: 16px; fill: rgb(255, 255, 255); fill-opacity: 1; white-space: pre; opacity: 1;" transform="translate(242.5,0)">0.4</text></g><g class="xtick"><text text-anchor="middle" x="0" y="460.2" style="font-family: Geist; font-size: 16px; fill: rgb(255, 255, 255); fill-opacity: 1; white-space: pre; opacity: 1;" transform="translate(312.5,0)">0.6</text></g><g class="xtick"><text text-anchor="middle" x="0" y="460.2" style="font-family: Geist; font-size: 16px; fill: rgb(255, 255, 255); fill-opacity: 1; white-space: pre; opacity: 1;" transform="translate(382.5,0)">0.8</text></g><g class="xtick"><text text-anchor="middle" x="0" y="460.2" style="font-family: Geist; font-size: 16px; fill: rgb(255, 255, 255); fill-opacity: 1; white-space: pre; opacity: 1;" transform="translate(452.5,0)">1</text></g></g><g class="yaxislayer-above"><path class="ytick ticks crisp" d="M64,0h-5" transform="translate(0,417.5)" style="stroke: rgb(0, 0, 0); stroke-opacity: 0; stroke-width: 1px;"/><path class="ytick ticks crisp" d="M64,0h-5" transform="translate(0,347.5)" style="stroke: rgb(0, 0, 0); stroke-opacity: 0; stroke-width: 1px;"/><path class="ytick ticks crisp" d="M64,0h-5" transform="translate(0,277.5)" style="stroke: rgb(0, 0, 0); stroke-opacity: 0; stroke-width: 1px;"/><path class="ytick ticks crisp" d="M64,0h-5" transform="translate(0,207.5)" style="stroke: rgb(0, 0, 0); stroke-opacity: 0; stroke-width: 1px;"/><path class="ytick ticks crisp" d="M64,0h-5" transform="translate(0,137.5)" style="stroke: rgb(0, 0, 0); stroke-opacity: 0; stroke-width: 1px;"/><path class="ytick ticks crisp" d="M64,0h-5" transform="translate(0,67.5)" style="stroke: rgb(0, 0, 0); stroke-opacity: 0; stroke-width: 1px;"/><g class="ytick"><text text-anchor="end" x="55.8" y="5.6" transform="translate(0,417.5)" style="font-family: Geist; font-size: 16px; fill: rgb(255, 255, 255); fill-opacity: 1; white-space: pre; opacity: 1;">0</text></g><g class="ytick"><text text-anchor="end" x="55.8" y="5.6" style="font-family: Geist; font-size: 16px; fill: rgb(255, 255, 255); fill-opacity: 1; white-space: pre; opacity: 1;" transform="translate(0,347.5)">0.2</text></g><g class="ytick"><text text-anchor="end" x="55.8" y="5.6" style="font-family: Geist; font-size: 16px; fill: rgb(255, 255, 255); fill-opacity: 1; white-space: pre; opacity: 1;" transform="translate(0,277.5)">0.4</text></g><g class="ytick"><text text-anchor="end" x="55.8" y="5.6" style="font-family: Geist; font-size: 16px; fill: rgb(255, 255, 255); fill-opacity: 1; white-space: pre; opacity: 1;" transform="translate(0,207.5)">0.6</text></g><g class="ytick"><text text-anchor="end" x="55.8" y="5.6" style="font-family: Geist; font-size: 16px; fill: rgb(255, 255, 255); fill-opacity: 1; white-space: pre; opacity: 1;" transform="translate(0,137.5)">0.8</text></g><g class="ytick"><text text-anchor="end" x="55.8" y="5.6" style="font-family: Geist; font-size: 16px; fill: rgb(255, 255, 255); fill-opacity: 1; white-space: pre; opacity: 1;" transform="translate(0,67.5)">1</text></g></g><g class="overaxes-above"/></g></g><g class="polarlayer"/><g class="smithlayer"/><g class="ternarylayer"/><g class="geolayer"/><g class="funnelarealayer"/><g class="pielayer"/><g class="iciclelayer"/><g class="treemaplayer"/><g class="sunburstlayer"/><g class="glimages"/><defs id="topdefs-bb385f"><g class="clips"/><clipPath id="legendbb385f"><rect width="158" height="79" x="0" y="0"/></clipPath></defs><g class="layer-above"><g class="imagelayer"/><g class="shapelayer"><g class="shape-group" data-index="0" clip-path="url(#clipbb385fxy)"><path data-index="0" fill-rule="evenodd" d="M85,435L470,50" style="opacity: 1; stroke: rgb(255, 255, 255); stroke-opacity: 0.658824; fill: rgb(0, 0, 0); fill-opacity: 0; stroke-dasharray: 3px, 3px; stroke-width: 2px;"/></g></g></g><g class="infolayer"><g class="legend" pointer-events="all" transform="translate(332,356)"><rect class="bg" shape-rendering="crispEdges" style="stroke: rgb(255, 255, 255); stroke-opacity: 0; fill: rgb(255, 255, 255); fill-opacity: 0; stroke-width: 0px;" width="158" height="79" x="0" y="0"/><g class="scrollbox" transform="" clip-path="url(#legendbb385f)"><text class="legendtitletext" text-anchor="start" x="2" y="20.8" style="font-family: Geist; font-size: 16px; fill: rgb(255, 255, 255); fill-opacity: 1; white-space: pre;">Sample (AUC)</text><g class="groups" transform=""><g class="traces" transform="translate(0,37.7)" style="opacity: 1;"><text class="legendtext" text-anchor="start" x="40" y="6.24" style="font-family: Geist; font-size: 16px; fill: rgb(255, 255, 255); fill-opacity: 1; white-space: pre;">Training (0.870)</text><g class="layers" style="opacity: 1;"><g class="legendfill"/><g class="legendlines"><path class="js-line" d="M5,0h30" style="fill: none; stroke: rgb(67, 164, 172); stroke-opacity: 1; stroke-width: 2px;"/></g><g class="legendsymbols"><g class="legendpoints"/></g></g><rect class="legendtoggle" x="0" y="-11.9" width="152.890625" height="23.8" style="fill: rgb(0, 0, 0); fill-opacity: 0;"/></g></g><g class="groups" transform=""><g class="traces" transform="translate(0,61.5)" style="opacity: 1;"><text class="legendtext" text-anchor="start" x="40" y="6.24" style="font-family: Geist; font-size: 16px; fill: rgb(255, 255, 255); fill-opacity: 1; white-space: pre;">Test (0.783)</text><g class="layers" style="opacity: 1;"><g class="legendfill"/><g class="legendlines"><path class="js-line" d="M5,0h30" style="fill: none; stroke: rgb(250, 152, 96); stroke-opacity: 1; stroke-width: 2px;"/></g><g class="legendsymbols"><g class="legendpoints"/></g></g><rect class="legendtoggle" x="0" y="-11.9" width="152.890625" height="23.8" style="fill: rgb(0, 0, 0); fill-opacity: 0;"/></g></g></g><rect class="scrollbar" rx="20" ry="3" width="0" height="0" style="fill: rgb(128, 139, 164); fill-opacity: 1;" x="0" y="0"/></g><g class="g-gtitle"><text class="gtitle" x="65" y="25" text-anchor="start" dy="0em" style="font-family: Geist; font-size: 16px; fill: rgb(255, 255, 255); opacity: 1; font-weight: normal; white-space: pre;"><tspan style="font-weight:bold">LIghtGBM</tspan></text></g><g class="g-xtitle"><text class="xtitle" x="277.5" y="493" text-anchor="middle" style="font-family: Geist; font-size: 16px; fill: rgb(255, 255, 255); opacity: 1; font-weight: normal; white-space: pre;">False Positive Rate</text></g><g class="g-ytitle"><text class="ytitle" transform="rotate(-90,23,242.5)" x="23" y="242.5" text-anchor="middle" style="font-family: Geist; font-size: 16px; fill: rgb(255, 255, 255); opacity: 1; font-weight: normal; white-space: pre;">True Positive Rate</text></g></g></svg>