<svg class="main-svg" xmlns="http://www.w3.org/2000/svg" xmlns:xlink="http://www.w3.org/1999/xlink" width="500" height="500" style="" viewBox="0 0 500 500"><rect x="0" y="0" width="500" height="500" style="fill: rgb(18, 18, 18); fill-opacity: 1;"/><defs id="defs-4bbb86"><g class="clips"><clipPath id="clip4bbb86xyplot" class="plotclip"><rect width="393" height="199"/></clipPath><clipPath class="axesclip" id="clip4bbb86x"><rect x="87" y="0" width="393" height="500"/></clipPath><clipPath class="axesclip" id="clip4bbb86y"><rect x="0" y="20" width="500" height="199"/></clipPath><clipPath class="axesclip" id="clip4bbb86xy"><rect x="87" y="20" width="393" height="199"/></clipPath></g><g class="gradients"/><g class="patterns"/></defs><g class="bglayer"><rect class="bg" x="87" y="20" width="393" height="199" style="fill: rgb(0, 0, 0); fill-opacity: 0; stroke-width: 0;"/></g><g class="layer-below"><g class="imagelayer"/><g class="shapelayer"/></g><g class="cartesianlayer"><g class="subplot xy"><g class="layer-subplot"><g class="shapelayer"/><g class="imagelayer"/></g><g class="minor-gridlayer"><g class="x"/><g class="y"/></g><g class="gridlayer"><g class="x"/><g class="y"><path class="ygrid crisp" transform="translate(0,182.51)" d="M87,0h393" style="stroke: rgb(23, 23, 23); stroke-opacity: 1; stroke-width: 1px;"/><path class="ygrid crisp" transform="translate(0,146.01999999999998)" d="M87,0h393" style="stroke: rgb(23, 23, 23); stroke-opacity: 1; stroke-width: 1px;"/><path class="ygrid crisp" transform="translate(0,109.53)" d="M87,0h393" style="stroke: rgb(23, 23, 23); stroke-opacity: 1; stroke-width: 1px;"/><path class="ygrid crisp" transform="translate(0,73.03)" d="M87,0h393" style="stroke: rgb(23, 23, 23); stroke-opacity: 1; stroke-width: 1px;"/><path class="ygrid crisp" transform="translate(0,36.54)" d="M87,0h393" style="stroke: rgb(23, 23, 23); stroke-opacity: 1; stroke-width: 1px;"/></g></g><g class="zerolinelayer"/><path class="xlines-below"/><path class="ylines-below"/><g class="overlines-below"/><g class="xaxislayer-below"/><g class="yaxislayer-below"/><g class="overaxes-below"/><g class="plot" transform="translate(87,20)" clip-path="url(#clip4bbb86xyplot)"><g class="barlayer mlayer"><g class="trace bars" style="opacity: 1;"><g class="points"><g class="point"><path d="M3.57,199V198.99H32.15V199Z" style="vector-effect: none; opacity: 1; stroke-width: 0px; fill: rgb(67, 164, 172); fill-opacity: 1;"/></g><g class="point"><path d="M39.3,199V198.16H67.88V199Z" style="vector-effect: none; opacity: 1; stroke-width: 0px; fill: rgb(67, 164, 172); fill-opacity: 1;"/></g><g class="point"><path d="M75.03,199V195.63H103.61V199Z" style="vector-effect: none; opacity: 1; stroke-width: 0px; fill: rgb(67, 164, 172); fill-opacity: 1;"/></g><g class="point"><path d="M110.75,199V194.09H139.34V199Z" style="vector-effect: none; opacity: 1; stroke-width: 0px; fill: rgb(67, 164, 172); fill-opacity: 1;"/></g><g class="point"><path d="M146.48,199V185.77H175.06V199Z" style="vector-effect: none; opacity: 1; stroke-width: 0px; fill: rgb(67, 164, 172); fill-opacity: 1;"/></g><g class="point"><path d="M182.21,199V180.47H210.79V199Z" style="vector-effect: none; opacity: 1; stroke-width: 0px; fill: rgb(67, 164, 172); fill-opacity: 1;"/></g><g class="point"><path d="M217.94,199V170.31H246.52V199Z" style="vector-effect: none; opacity: 1; stroke-width: 0px; fill: rgb(67, 164, 172); fill-opacity: 1;"/></g><g class="point"><path d="M253.66,199V164.48H282.25V199Z" style="vector-effect: none; opacity: 1; stroke-width: 0px; fill: rgb(67, 164, 172); fill-opacity: 1;"/></g><g class="point"><path d="M289.39,199V116.94H317.97V199Z" style="vector-effect: none; opacity: 1; stroke-width: 0px; fill: rgb(67, 164, 172); fill-opacity: 1;"/></g><g class="point"><path d="M325.12,199V93.46H353.7V199Z" style="vector-effect: none; opacity: 1; stroke-width: 0px; fill: rgb(67, 164, 172); fill-opacity: 1;"/></g><g class="point"><path d="M360.85,199V9.95H389.43V199Z" style="vector-effect: none; opacity: 1; stroke-width: 0px; fill: rgb(67, 164, 172); fill-opacity: 1;"/></g></g></g></g></g><g class="overplot"/><path class="xlines-above crisp" d="" style="fill: none; stroke-width: 1px; stroke: rgb(0, 0, 0); stroke-opacity: 0;"/><path class="ylines-above crisp" d="" style="fill: none; stroke-width: 1px; stroke: rgb(0, 0, 0); stroke-opacity: 0;"/><g class="overlines-above"/><g class="xaxislayer-above"><path class="xtick ticks crisp" d="M0,220v5" transform="translate(104.86,0)" style="stroke: rgb(0, 0, 0); stroke-opacity: 0; stroke-width: 1px;"/><path class="xtick ticks crisp" d="M0,220v5" transform="translate(140.59,0)" style="stroke: rgb(0, 0, 0); stroke-opacity: 0; stroke-width: 1px;"/><path class="xtick ticks crisp" d="M0,220v5" transform="translate(176.32,0)" style="stroke: rgb(0, 0, 0); stroke-opacity: 0; stroke-width: 1px;"/><path class="xtick ticks crisp" d="M0,220v5" transform="translate(212.05,0)" style="stroke: rgb(0, 0, 0); stroke-opacity: 0; stroke-width: 1px;"/><path class="xtick ticks crisp" d="M0,220v5" transform="translate(247.77,0)" style="stroke: rgb(0, 0, 0); stroke-opacity: 0; stroke-width: 1px;"/><path class="xtick ticks crisp" d="M0,220v5" transform="translate(283.5,0)" style="stroke: rgb(0, 0, 0); stroke-opacity: 0; stroke-width: 1px;"/><path class="xtick ticks crisp" d="M0,220v5" transform="translate(319.23,0)" style="stroke: rgb(0, 0, 0); stroke-opacity: 0; stroke-width: 1px;"/><path class="xtick ticks crisp" d="M0,220v5" transform="translate(354.95,0)" style="stroke: rgb(0, 0, 0); stroke-opacity: 0; stroke-width: 1px;"/><path class="xtick ticks crisp" d="M0,220v5" transform="translate(390.68,0)" style="stroke: rgb(0, 0, 0); stroke-opacity: 0; stroke-width: 1px;"/><path class="xtick ticks crisp" d="M0,220v5" transform="translate(426.41,0)" style="stroke: rgb(0, 0, 0); stroke-opacity: 0; stroke-width: 1px;"/><path class="xtick ticks crisp" d="M0,220v5" transform="translate(462.14,0)" style="stroke: rgb(0, 0, 0); stroke-opacity: 0; stroke-width: 1px;"/><g class="xtick"><text text-anchor="start" x="0" y="244.2" transform="translate(104.86,0) rotate(90,0,236.2)" style="font-family: Geist; font-size: 16px; fill: rgb(255, 255, 255); fill-opacity: 1; white-space: pre; opacity: 1;">OrganismKlebsiella Pneumoniae</text></g><g class="xtick"><text text-anchor="start" x="0" y="244.2" transform="translate(140.59,0) rotate(90,0,236.2)" style="font-family: Geist; font-size: 16px; fill: rgb(255, 255, 255); fill-opacity: 1; white-space: pre; opacity: 1;">DepartmentNeorology</text></g><g class="xtick"><text text-anchor="start" x="0" y="244.2" transform="translate(176.32,0) rotate(90,0,236.2)" style="font-family: Geist; font-size: 16px; fill: rgb(255, 255, 255); fill-opacity: 1; white-space: pre; opacity: 1;">DepartmentMedical Ward</text></g><g class="xtick"><text text-anchor="start" x="0" y="244.2" transform="translate(212.05,0) rotate(90,0,236.2)" style="font-family: Geist; font-size: 16px; fill: rgb(255, 255, 255); fill-opacity: 1; white-space: pre; opacity: 1;">DepartmentNICU</text></g><g class="xtick"><text text-anchor="start" x="0" y="244.2" transform="translate(247.77,0) rotate(90,0,236.2)" style="font-family: Geist; font-size: 16px; fill: rgb(255, 255, 255); fill-opacity: 1; white-space: pre; opacity: 1;">OrganismKlebsiella Spp</text></g><g class="xtick"><text text-anchor="start" x="0" y="244.2" transform="translate(283.5,0) rotate(90,0,236.2)" style="font-family: Geist; font-size: 16px; fill: rgb(255, 255, 255); fill-opacity: 1; white-space: pre; opacity: 1;">SpecimentypeWound</text></g><g class="xtick"><text text-anchor="start" x="0" y="244.2" transform="translate(319.23,0) rotate(90,0,236.2)" style="font-family: Geist; font-size: 16px; fill: rgb(255, 255, 255); fill-opacity: 1; white-space: pre; opacity: 1;">SpecimentypePus Swab</text></g><g class="xtick"><text text-anchor="start" x="0" y="244.2" transform="translate(354.95,0) rotate(90,0,236.2)" style="font-family: Geist; font-size: 16px; fill: rgb(255, 255, 255); fill-opacity: 1; white-space: pre; opacity: 1;">LabLab H</text></g><g class="xtick"><text text-anchor="start" x="0" y="244.2" transform="translate(390.68,0) rotate(90,0,236.2)" style="font-family: Geist; font-size: 16px; fill: rgb(255, 255, 255); fill-opacity: 1; white-space: pre; opacity: 1;">DepartmentICU</text></g><g class="xtick"><text text-anchor="start" x="0" y="244.2" transform="translate(426.41,0) rotate(90,0,236.2)" style="font-family: Geist; font-size: 16px; fill: rgb(255, 255, 255); fill-opacity: 1; white-space: pre; opacity: 1;">OrganismPseudomonas Spp</text></g><g class="xtick"><text text-anchor="start" x="0" y="244.2" transform="translate(462.14,0) rotate(90,0,236.2)" style="font-family: Geist; font-size: 16px; fill: rgb(255, 255, 255); fill-opacity: 1; white-space: pre; opacity: 1;">DepartmentSurgical Ward</text></g></g><g class="yaxislayer-above"><path class="ytick ticks crisp" d="M86,0h-5" transform="translate(0,219)" style="stroke: rgb(0, 0, 0); stroke-opacity: 0; stroke-width: 1px;"/><path class="ytick ticks crisp" d="M86,0h-5" transform="translate(0,182.51)" style="stroke: rgb(0, 0, 0); stroke-opacity: 0; stroke-width: 1px;"/><path class="ytick ticks crisp" d="M86,0h-5" transform="translate(0,146.01999999999998)" style="stroke: rgb(0, 0, 0); stroke-opacity: 0; stroke-width: 1px;"/><path class="ytick ticks crisp" d="M86,0h-5" transform="translate(0,109.53)" style="stroke: rgb(0, 0, 0); stroke-opacity: 0; stroke-width: 1px;"/><path class="ytick ticks crisp" d="M86,0h-5" transform="translate(0,73.03)" style="stroke: rgb(0, 0, 0); stroke-opacity: 0; stroke-width: 1px;"/><path class="ytick ticks crisp" d="M86,0h-5" transform="translate(0,36.54)" style="stroke: rgb(0, 0, 0); stroke-opacity: 0; stroke-width: 1px;"/><g class="ytick"><text text-anchor="end" x="77.8" y="5.6" transform="translate(0,219)" style="font-family: Geist; font-size: 16px; fill: rgb(255, 255, 255); fill-opacity: 1; white-space: pre; opacity: 1;">0</text></g><g class="ytick"><text text-anchor="end" x="77.8" y="5.6" style="font-family: Geist; font-size: 16px; fill: rgb(255, 255, 255); fill-opacity: 1; white-space: pre; opacity: 1;" transform="translate(0,182.51)">0.2</text></g><g class="ytick"><text text-anchor="end" x="77.8" y="5.6" style="font-family: Geist; font-size: 16px; fill: rgb(255, 255, 255); fill-opacity: 1; white-space: pre; opacity: 1;" transform="translate(0,146.01999999999998)">0.4</text></g><g class="ytick"><text text-anchor="end" x="77.8" y="5.6" style="font-family: Geist; font-size: 16px; fill: rgb(255, 255, 255); fill-opacity: 1; white-space: pre; opacity: 1;" transform="translate(0,109.53)">0.6</text></g><g class="ytick"><text text-anchor="end" x="77.8" y="5.6" style="font-family: Geist; font-size: 16px; fill: rgb(255, 255, 255); fill-opacity: 1; white-space: pre; opacity: 1;" transform="translate(0,73.03)">0.8</text></g><g class="ytick"><text text-anchor="end" x="77.8" y="5.6" style="font-family: Geist; font-size: 16px; fill: rgb(255, 255, 255); fill-opacity: 1; white-space: pre; opacity: 1;" transform="translate(0,36.54)">1</text></g></g><g class="overaxes-above"/></g></g><g class="polarlayer"/><g class="smithlayer"/><g class="ternarylayer"/><g class="geolayer"/><g class="funnelarealayer"/><g class="pielayer"/><g class="iciclelayer"/><g class="treemaplayer"/><g class="sunburstlayer"/><g class="glimages"/><defs id="topdefs-4bbb86"><g class="clips"/></defs><g class="layer-above"><g class="imagelayer"/><g class="shapelayer"/></g><g class="infolayer"><g class="g-gtitle"/><g class="g-xtitle"/><g class="g-ytitle" transform="translate(-18.25,0)"><text class="ytitle" transform="rotate(-90,45,119.5)" x="45" y="119.5" text-anchor="middle" style="font-family: Geist; font-size: 16px; fill: rgb(255, 255, 255); opacity: 1; font-weight: normal; white-space: pre;"><tspan class="line" dy="0em" x="45" y="119.5">Mean Variable Importance</tspan><tspan class="line" dy="1.3em" x="45" y="119.5">(across 10 independent folds)</tspan></text></g></g></svg>