<svg class="main-svg" xmlns="http://www.w3.org/2000/svg" xmlns:xlink="http://www.w3.org/1999/xlink" width="500" height="500" style="" viewBox="0 0 500 500"><rect x="0" y="0" width="500" height="500" style="fill: rgb(18, 18, 18); fill-opacity: 1;"/><defs id="defs-671a96"><g class="clips"><clipPath id="clip671a96xyplot" class="plotclip"><rect width="425" height="385"/></clipPath><clipPath class="axesclip" id="clip671a96x"><rect x="65" y="0" width="425" height="500"/></clipPath><clipPath class="axesclip" id="clip671a96y"><rect x="0" y="50" width="500" height="385"/></clipPath><clipPath class="axesclip" id="clip671a96xy"><rect x="65" y="50" width="425" height="385"/></clipPath></g><g class="gradients"/><g class="patterns"/></defs><g class="bglayer"><rect class="bg" x="65" y="50" width="425" height="385" style="fill: rgb(0, 0, 0); fill-opacity: 0; stroke-width: 0;"/></g><g class="layer-below"><g class="imagelayer"/><g class="shapelayer"/></g><g class="cartesianlayer"><g class="subplot xy"><g class="layer-subplot"><g class="shapelayer"/><g class="imagelayer"/></g><g class="minor-gridlayer"><g class="x"/><g class="y"/></g><g class="gridlayer"><g class="x"><path class="xgrid crisp" transform="translate(102.5,0)" d="M0,50v385" style="stroke: rgb(64, 64, 64); stroke-opacity: 1; stroke-width: 1px;"/><path class="xgrid crisp" transform="translate(172.5,0)" d="M0,50v385" style="stroke: rgb(64, 64, 64); stroke-opacity: 1; stroke-width: 1px;"/><path class="xgrid crisp" transform="translate(242.5,0)" d="M0,50v385" style="stroke: rgb(64, 64, 64); stroke-opacity: 1; stroke-width: 1px;"/><path class="xgrid crisp" transform="translate(312.5,0)" d="M0,50v385" style="stroke: rgb(64, 64, 64); stroke-opacity: 1; stroke-width: 1px;"/><path class="xgrid crisp" transform="translate(382.5,0)" d="M0,50v385" style="stroke: rgb(64, 64, 64); stroke-opacity: 1; stroke-width: 1px;"/><path class="xgrid crisp" transform="translate(452.5,0)" d="M0,50v385" style="stroke: rgb(64, 64, 64); stroke-opacity: 1; stroke-width: 1px;"/></g><g class="y"><path class="ygrid crisp" transform="translate(0,417.5)" d="M65,0h425" style="stroke: rgb(64, 64, 64); stroke-opacity: 1; stroke-width: 1px;"/><path class="ygrid crisp" transform="translate(0,347.5)" d="M65,0h425" style="stroke: rgb(64, 64, 64); stroke-opacity: 1; stroke-width: 1px;"/><path class="ygrid crisp" transform="translate(0,277.5)" d="M65,0h425" style="stroke: rgb(64, 64, 64); stroke-opacity: 1; stroke-width: 1px;"/><path class="ygrid crisp" transform="translate(0,207.5)" d="M65,0h425" style="stroke: rgb(64, 64, 64); stroke-opacity: 1; stroke-width: 1px;"/><path class="ygrid crisp" transform="translate(0,137.5)" d="M65,0h425" style="stroke: rgb(64, 64, 64); stroke-opacity: 1; stroke-width: 1px;"/><path class="ygrid crisp" transform="translate(0,67.5)" d="M65,0h425" style="stroke: rgb(64, 64, 64); stroke-opacity: 1; stroke-width: 1px;"/></g></g><g class="zerolinelayer"/><path class="xlines-below"/><path class="ylines-below"/><g class="overlines-below"/><g class="xaxislayer-below"/><g class="yaxislayer-below"/><g class="overaxes-below"/><g class="plot" transform="translate(65,50)" clip-path="url(#clip671a96xyplot)"><g class="scatterlayer mlayer"><g class="trace scatter traceea8be0" style="stroke-miterlimit: 2; opacity: 1;"><g class="fills"/><g class="errorbars"/><g class="lines"><path class="js-line" d="M387.5,17.5L350.68,18.1L350.68,18.3L346.34,18.9L346.34,19.1L333.3,19.5L333.3,19.91L325.24,20.51L325.03,20.71L323.58,21.31L323.58,21.51L319.44,22.11L319.44,22.31L317.79,22.91L317.58,23.11L316.96,23.31L316.96,23.71L316.96,23.91L309.31,24.52L309.31,24.72L306.62,25.32L306.62,25.52L303.52,25.72L303.52,25.92L303.31,26.32L301.86,26.72L301.65,26.72L297.31,27.32L297.31,27.52L292.35,27.92L292.35,28.32L288,28.93L287.8,29.13L283.04,29.73L283.04,29.93L281.38,30.53L281.38,30.93L278.49,31.53L278.49,31.73L272.28,32.33L272.28,32.53L269.18,33.14L269.18,33.34L266.08,33.94L265.87,34.34L265.66,34.94L265.25,34.94L265.04,34.94L262.35,35.54L262.35,35.74L262.15,36.14L261.73,36.14L261.52,36.14L261.52,36.34L260.9,36.34L260.7,36.34L259.25,36.34L259.25,36.94L259.04,37.14L255.73,37.75L255.73,37.95L255.11,38.35L254.91,38.75L251.18,39.35L251.18,39.55L249.11,39.95L249.11,40.15L249.11,40.35L248.7,40.75L248.49,40.75L248.29,40.75L248.29,40.95L247.67,40.95L247.46,40.95L244.36,41.55L244.36,41.76L243.94,42.96L243.74,42.96L243.53,42.96L242.7,43.56L242.7,43.76L238.36,44.36L238.36,44.56L238.36,44.76L237.74,44.76L237.53,44.76L237.32,45.56L237.12,45.56L236.7,45.56L233.81,46.17L233.81,46.37L233.6,46.97L233.19,46.97L232.98,46.97L230.7,47.57L230.7,47.77L229.88,48.37L229.88,48.57L227.6,49.17L227.6,49.37L227.39,49.77L226.98,49.77L226.77,49.77L226.15,50.38L226.15,50.58L223.26,50.98L223.26,51.18L223.26,51.38L222.22,51.98L222.22,52.18L219.95,52.78L219.95,52.98L219.53,53.18L219.53,53.58L219.53,53.78L218.91,54.99L218.71,54.99L217.88,55.59L217.88,55.79L217.46,55.99L217.46,56.39L217.46,56.59L216.84,58.79L216.64,58.79L215.4,59.2L215.4,59.4L215.4,59.6L212.5,60.2L212.5,60.4L211.88,61L211.67,61L210.02,61.6L209.81,61.6L209.19,62.2L208.98,62.2L208.16,62.8L208.16,63L208.16,63.2L207.54,63.2L207.33,63.2L205.05,63.81L205.05,64.01L201.54,64.61L201.54,64.81L198.64,65.41L198.43,65.61L194.71,66.01L194.71,66.21L194.71,66.41L194.5,67.01L194.09,67.01L193.88,67.01L191.61,67.61L191.61,67.82L187.26,68.42L187.26,68.62L186.85,69.22L186.64,69.22L186.44,69.22L183.33,69.62L183.33,69.82L183.33,70.02L182.3,70.42L182.3,70.62L182.3,70.82L182.3,71.02L181.68,71.02L181.47,71.02L181.06,71.62L180.85,71.62L180.44,71.62L178.99,72.02L178.99,72.23L178.99,72.43L176.92,73.03L176.92,73.23L175.47,73.83L175.47,74.03L174.44,74.63L174.44,74.83L173.2,75.43L173.2,75.63L172.58,76.43L172.16,76.43L170.3,76.84L170.3,77.04L170.3,77.24L169.68,78.44L169.47,78.44L169.47,78.84L168.85,78.84L168.65,78.84L168.65,79.24L168.03,79.24L167.82,79.24L165.34,79.84L165.34,80.04L160.99,80.64L160.99,80.84L160.37,81.65L160.17,81.65L159.54,82.05L159.34,82.05L159.13,82.05L159.13,82.65L159.13,82.85L157.68,83.45L157.68,83.65L155.61,84.05L155.61,84.25L155.61,84.45L155.2,85.05L155.2,85.25L153.75,85.86L153.75,86.06L151.48,86.66L151.48,86.86L151.27,88.06L150.86,88.06L150.65,88.06L149.62,88.26L149.62,88.66L149.62,88.86L149.2,88.86L149.2,89.46L149.2,89.66L148.79,91.07L148.58,91.07L148.37,91.07L147.96,91.47L147.75,91.47L147.55,91.47L146.51,92.07L146.51,92.27L146.51,92.87L145.89,92.87L145.69,92.87L144.44,93.47L144.44,93.67L143.82,96.48L143.62,96.48L142.79,97.08L142.79,97.48L141.76,98.08L141.76,98.28L141.34,98.89L141.13,98.89L140.93,98.89L140.31,101.09L140.1,101.09L139.69,101.69L139.48,101.69L139.27,101.69L139.27,101.89L138.65,101.89L138.45,101.89L137.83,102.29L137.83,102.49L137.83,102.69L137.41,104.9L137.2,104.9L137,104.9L137,105.9L136.38,105.9L136.17,105.9L135.76,106.9L135.55,106.9L135.34,106.9L134.31,107.51L134.31,107.71L133.69,109.31L133.48,109.31L133.07,111.51L132.86,111.51L132.65,111.51L132.03,112.12L131.83,112.12L131.21,113.72L131,113.72L130.79,114.92L130.38,114.92L130.17,114.92L129.96,114.92L129.96,115.52L129.96,115.72L129.34,116.33L129.14,116.33L128.52,116.93L128.1,116.93L127.9,116.93L127.9,117.13L127.9,117.73L127.28,118.33L127.28,118.53L126.65,122.34L126.45,122.34L125.62,122.54L125.62,122.94L125.62,123.14L125,125.35L124.79,125.55L124.17,126.75L123.97,126.75L123.97,127.55L123.35,127.55L123.14,127.55L122.52,128.95L122.31,128.95L121.9,128.95L121.9,129.56L121.9,129.96L121.28,132.16L121.07,132.16L121.07,134.77L120.66,134.77L120.24,134.77L119.83,136.17L119.62,136.17L119.41,136.17L118.79,138.58L118.59,138.58L118.59,138.78L118.17,138.78L117.76,138.78L117.14,139.98L116.93,139.98L116.73,139.98L116.73,140.58L116.73,140.78L116.52,141.18L116.11,141.18L115.9,141.18L115.48,143.39L115.28,143.39L115.07,143.39L114.45,146.6L114.24,146.6L113.62,146.8L113.62,147.2L113.62,147.4L113,149.6L112.8,149.6L112.17,152.01L111.97,152.41L110.73,152.81L110.73,153.01L110.73,153.21L110.31,157.62L110.11,157.62L109.9,157.62L109.69,157.62L109.69,158.22L109.49,158.42L109.07,159.42L108.87,159.42L108.66,159.42L108.24,160.23L107.83,160.23L107.21,160.83L107.21,161.03L106.59,163.23L106.38,163.23L105.76,166.84L105.56,166.84L105.14,167.04L105.14,167.24L105.14,167.84L104.52,170.25L104.31,170.45L103.69,172.86L103.49,172.86L103.07,173.26L103.07,173.46L103.07,173.66L103.07,173.86L102.45,173.86L102.25,174.06L101.63,176.26L101.42,176.26L100.8,177.87L100.59,177.87L100.38,178.27L99.97,178.27L99.76,178.27L99.35,178.67L99.35,178.87L99.35,179.47L99.35,180.27L98.73,180.27L98.52,180.27L98.11,181.27L97.9,181.27L97.7,181.27L97.07,183.08L96.87,183.28L96.45,185.28L96.25,185.28L96.04,185.28L95.42,187.29L95.21,187.29L94.59,189.69L94.39,189.69L93.56,190.09L93.56,190.29L93.56,190.5L92.94,191.7L92.73,191.7L92.32,197.51L91.9,197.51L91.49,198.71L91.49,199.32L90.87,203.32L90.46,203.32L89.83,205.33L89.63,205.33L89.01,208.14L88.8,208.34L88.18,212.55L87.97,212.75L87.35,215.15L87.15,215.35L86.52,219.16L86.32,219.36L86.11,219.96L85.7,219.96L85.49,219.96L85.08,219.96L85.08,220.56L85.08,220.76L84.25,221.17L84.25,221.37L84.04,221.77L83.42,224.57L83.22,224.57L82.59,227.38L82.39,227.58L81.56,227.78L81.56,228.18L81.56,228.38L80.94,233.59L80.73,233.59L80.11,235.8L79.91,235.8L79.28,236.4L79.08,236.6L78.46,239.41L78.25,239.41L77.84,239.61L77.84,240.01L77.84,240.21L77.22,241.81L77.01,242.01L76.39,245.02L76.18,245.02L75.15,245.62L75.15,245.82L74.53,247.63L74.32,247.83L73.91,248.23L73.91,248.43L73.91,248.63L73.49,252.24L73.29,252.24L73.08,252.44L72.46,257.85L72.25,257.85L72.04,257.85L72.04,258.45L72.04,258.65L71.42,261.66L71.22,261.66L70.6,264.66L70.39,264.66L69.77,265.67L69.56,265.87L69.56,267.47L68.94,267.47L68.74,267.47L68.11,270.08L67.91,270.08L67.49,274.49L67.29,274.49L67.08,274.69L66.46,275.69L66.25,276.09L65.63,278.3L65.43,278.5L64.8,279.9L64.6,280.1L64.18,280.3L64.18,280.5L64.18,280.9L63.56,281.7L63.36,281.7L62.74,284.71L62.53,284.71L62.12,285.31L62.12,285.51L61.5,288.32L61.29,288.32L60.87,289.72L60.67,289.72L60.46,289.72L60.05,290.92L60.05,291.33L59.43,292.33L59.22,292.33L58.6,293.53L58.39,293.73L57.77,294.93L57.57,295.13L56.94,295.54L56.94,295.74L56.94,295.94L56.12,296.34L56.12,296.54L55.91,296.74L55.7,296.74L55.7,297.34L55.5,297.54L54.88,302.55L54.67,302.55L54.46,302.55L54.46,303.15L54.46,303.35L53.84,304.96L53.84,305.16L53.63,305.16L53.63,305.76L53.63,306.16L53.01,307.76L53.01,307.96L52.39,310.17L52.19,310.17L51.57,312.77L51.36,312.77L50.74,316.18L50.53,316.18L49.91,323.6L49.7,324L49.08,331.02L48.88,331.02L48.46,334.02L48.26,334.02L48.05,334.22L47.43,337.43L47.22,337.43L46.6,341.04L46.39,341.04L45.98,345.45L45.77,345.45L45.57,345.65L44.53,346.25L44.53,346.45L43.91,350.86L43.71,350.86L43.09,353.47L42.88,353.47L42.26,355.87L42.05,355.87L41.43,358.08L41.22,358.08L40.6,359.68L40.4,359.68L39.78,362.69L39.57,362.69L38.12,365.09L38.12,365.29L37.5,367.5" style="vector-effect: none; fill: none; stroke: rgb(67, 164, 172); stroke-opacity: 1; stroke-width: 2px; opacity: 1;"/></g><g class="points"/><g class="text"/></g><g class="trace scatter tracecb449a" style="stroke-miterlimit: 2; opacity: 1;"><g class="fills"/><g class="errorbars"/><g class="lines"><path class="js-line" d="M387.5,17.5L385.64,17.5L385.64,19.3L346.54,19.3L346.54,21.11L335.37,21.11L335.37,22.91L324.2,22.91L324.2,24.72L316.76,24.72L316.76,26.52L316.76,31.93L314.89,31.93L313.03,31.93L313.03,33.74L303.72,33.74L303.72,35.54L298.14,35.54L298.14,37.35L292.55,37.35L292.55,39.15L292.55,40.95L290.69,40.95L279.52,40.95L279.52,42.76L273.94,42.76L273.94,44.56L268.35,44.56L268.35,46.37L268.35,48.17L266.49,48.17L264.63,48.17L264.63,49.97L262.77,49.97L262.77,51.78L259.04,51.78L259.04,53.58L249.73,53.58L249.73,55.39L244.15,55.39L244.15,57.19L229.26,57.19L229.26,58.99L225.53,58.99L225.53,60.8L225.53,64.41L223.67,64.41L216.22,64.41L216.22,66.21L212.5,66.21L212.5,68.02L208.78,68.02L208.78,69.82L195.74,69.82L195.74,71.62L190.16,71.62L190.16,73.43L190.16,75.23L188.3,75.23L186.44,75.23L186.44,77.04L180.85,77.04L180.85,78.84L178.99,78.84L178.99,80.64L177.13,80.64L177.13,82.45L177.13,86.06L175.27,86.06L175.27,91.47L173.4,91.47L169.68,91.47L169.68,93.27L162.23,93.27L162.23,95.08L160.37,95.08L160.37,96.88L160.37,111.31L158.51,111.31L158.51,116.73L156.65,116.73L154.79,116.73L154.79,118.53L152.93,118.53L152.93,120.34L151.06,120.34L151.06,122.14L151.06,123.94L149.2,123.94L149.2,132.96L147.34,132.96L147.34,136.57L145.48,136.57L145.48,138.38L143.62,138.38L139.89,138.38L139.89,140.18L139.89,141.98L138.03,141.98L138.03,143.79L136.17,143.79L132.45,143.79L132.45,145.59L130.59,145.59L130.59,147.4L128.72,147.4L128.72,149.2L125,149.2L125,151.01L123.14,151.01L123.14,152.81L123.14,158.22L121.28,158.22L121.28,169.05L119.41,169.05L119.41,176.26L117.55,176.26L117.55,178.07L115.69,178.07L115.69,185.28L113.83,185.28L113.83,187.09L111.97,187.09L111.97,197.91L110.11,197.91L110.11,201.52L108.24,201.52L108.24,203.32L106.38,203.32L106.38,217.76L104.52,217.76L104.52,221.37L102.66,221.37L102.66,224.97L100.8,224.97L100.8,235.8L98.94,235.8L97.07,235.8L97.07,237.6L95.21,237.6L95.21,239.41L95.21,241.21L93.35,241.21L91.49,241.21L91.49,243.02L91.49,252.04L89.63,252.04L87.77,252.04L87.77,253.84L87.77,255.64L85.9,255.64L85.9,259.25L84.04,259.25L82.18,259.25L82.18,261.06L82.18,268.27L80.32,268.27L80.32,284.51L78.46,284.51L78.46,293.53L76.6,293.53L76.6,298.94L74.73,298.94L74.73,300.75L72.87,300.75L67.29,300.75L67.29,302.55L67.29,315.18L65.43,315.18L63.56,315.18L63.56,316.98L59.84,316.98L59.84,318.79L59.84,320.59L57.98,320.59L54.26,320.59L54.26,322.4L54.26,327.81L52.39,327.81L52.39,336.83L50.53,336.83L50.53,340.44L48.67,340.44L48.67,345.85L46.81,345.85L46.81,347.65L44.95,347.65L44.95,358.48L43.09,358.48L43.09,360.28L41.22,360.28L41.22,362.09L39.36,362.09L39.36,365.7L37.5,365.7L37.5,367.5" style="vector-effect: none; fill: none; stroke: rgb(250, 152, 96); stroke-opacity: 1; stroke-width: 2px; opacity: 1;"/></g><g class="points"/><g class="text"/></g></g></g><g class="overplot"/><path class="xlines-above crisp" d="" style="fill: none; stroke-width: 1px; stroke: rgb(0, 0, 0); stroke-opacity: 0;"/><path class="ylines-above crisp" d="" style="fill: none; stroke-width: 1px; stroke: rgb(0, 0, 0); stroke-opacity: 0;"/><g class="overlines-above"/><g class="xaxislayer-above"><path class="xtick ticks crisp" d="M0,436v5" transform="translate(102.5,0)" style="stroke: rgb(0, 0, 0); stroke-opacity: 0; stroke-width: 1px;"/><path class="xtick ticks crisp" d="M0,436v5" transform="translate(172.5,0)" style="stroke: rgb(0, 0, 0); stroke-opacity: 0; stroke-width: 1px;"/><path class="xtick ticks crisp" d="M0,436v5" transform="translate(242.5,0)" style="stroke: rgb(0, 0, 0); stroke-opacity: 0; stroke-width: 1px;"/><path class="xtick ticks crisp" d="M0,436v5" transform="translate(312.5,0)" style="stroke: rgb(0, 0, 0); stroke-opacity: 0; stroke-width: 1px;"/><path class="xtick ticks crisp" d="M0,436v5" transform="translate(382.5,0)" style="stroke: rgb(0, 0, 0); stroke-opacity: 0; stroke-width: 1px;"/><path class="xtick ticks crisp" d="M0,436v5" transform="translate(452.5,0)" style="stroke: rgb(0, 0, 0); stroke-opacity: 0; stroke-width: 1px;"/><g class="xtick"><text text-anchor="middle" x="0" y="460.2" transform="translate(102.5,0)" style="font-family: Geist; font-size: 16px; fill: rgb(255, 255, 255); fill-opacity: 1; white-space: pre; opacity: 1;">0</text></g><g class="xtick"><text text-anchor="middle" x="0" y="460.2" style="font-family: Geist; font-size: 16px; fill: rgb(255, 255, 255); fill-opacity: 1; white-space: pre; opacity: 1;" transform="translate(172.5,0)">0.2</text></g><g class="xtick"><text text-anchor="middle" x="0" y="460.2" style="font-family: Geist; font-size: 16px; fill: rgb(255, 255, 255); fill-opacity: 1; white-space: pre; opacity: 1;" transform="translate(242.5,0)">0.4</text></g><g class="xtick"><text text-anchor="middle" x="0" y="460.2" style="font-family: Geist; font-size: 16px; fill: rgb(255, 255, 255); fill-opacity: 1; white-space: pre; opacity: 1;" transform="translate(312.5,0)">0.6</text></g><g class="xtick"><text text-anchor="middle" x="0" y="460.2" style="font-family: Geist; font-size: 16px; fill: rgb(255, 255, 255); fill-opacity: 1; white-space: pre; opacity: 1;" transform="translate(382.5,0)">0.8</text></g><g class="xtick"><text text-anchor="middle" x="0" y="460.2" style="font-family: Geist; font-size: 16px; fill: rgb(255, 255, 255); fill-opacity: 1; white-space: pre; opacity: 1;" transform="translate(452.5,0)">1</text></g></g><g class="yaxislayer-above"><path class="ytick ticks crisp" d="M64,0h-5" transform="translate(0,417.5)" style="stroke: rgb(0, 0, 0); stroke-opacity: 0; stroke-width: 1px;"/><path class="ytick ticks crisp" d="M64,0h-5" transform="translate(0,347.5)" style="stroke: rgb(0, 0, 0); stroke-opacity: 0; stroke-width: 1px;"/><path class="ytick ticks crisp" d="M64,0h-5" transform="translate(0,277.5)" style="stroke: rgb(0, 0, 0); stroke-opacity: 0; stroke-width: 1px;"/><path class="ytick ticks crisp" d="M64,0h-5" transform="translate(0,207.5)" style="stroke: rgb(0, 0, 0); stroke-opacity: 0; stroke-width: 1px;"/><path class="ytick ticks crisp" d="M64,0h-5" transform="translate(0,137.5)" style="stroke: rgb(0, 0, 0); stroke-opacity: 0; stroke-width: 1px;"/><path class="ytick ticks crisp" d="M64,0h-5" transform="translate(0,67.5)" style="stroke: rgb(0, 0, 0); stroke-opacity: 0; stroke-width: 1px;"/><g class="ytick"><text text-anchor="end" x="55.8" y="5.6" transform="translate(0,417.5)" style="font-family: Geist; font-size: 16px; fill: rgb(255, 255, 255); fill-opacity: 1; white-space: pre; opacity: 1;">0</text></g><g class="ytick"><text text-anchor="end" x="55.8" y="5.6" style="font-family: Geist; font-size: 16px; fill: rgb(255, 255, 255); fill-opacity: 1; white-space: pre; opacity: 1;" transform="translate(0,347.5)">0.2</text></g><g class="ytick"><text text-anchor="end" x="55.8" y="5.6" style="font-family: Geist; font-size: 16px; fill: rgb(255, 255, 255); fill-opacity: 1; white-space: pre; opacity: 1;" transform="translate(0,277.5)">0.4</text></g><g class="ytick"><text text-anchor="end" x="55.8" y="5.6" style="font-family: Geist; font-size: 16px; fill: rgb(255, 255, 255); fill-opacity: 1; white-space: pre; opacity: 1;" transform="translate(0,207.5)">0.6</text></g><g class="ytick"><text text-anchor="end" x="55.8" y="5.6" style="font-family: Geist; font-size: 16px; fill: rgb(255, 255, 255); fill-opacity: 1; white-space: pre; opacity: 1;" transform="translate(0,137.5)">0.8</text></g><g class="ytick"><text text-anchor="end" x="55.8" y="5.6" style="font-family: Geist; font-size: 16px; fill: rgb(255, 255, 255); fill-opacity: 1; white-space: pre; opacity: 1;" transform="translate(0,67.5)">1</text></g></g><g class="overaxes-above"/></g></g><g class="polarlayer"/><g class="smithlayer"/><g class="ternarylayer"/><g class="geolayer"/><g class="funnelarealayer"/><g class="pielayer"/><g class="iciclelayer"/><g class="treemaplayer"/><g class="sunburstlayer"/><g class="glimages"/><defs id="topdefs-671a96"><g class="clips"/><clipPath id="legend671a96"><rect width="153" height="79" x="0" y="0"/></clipPath></defs><g class="layer-above"><g class="imagelayer"/><g class="shapelayer"><g class="shape-group" data-index="0" clip-path="url(#clip671a96xy)"><path data-index="0" fill-rule="evenodd" d="M85,435L470,50" style="opacity: 1; stroke: rgb(255, 255, 255); stroke-opacity: 0.658824; fill: rgb(0, 0, 0); fill-opacity: 0; stroke-dasharray: 3px, 3px; stroke-width: 2px;"/></g></g></g><g class="infolayer"><g class="legend" pointer-events="all" transform="translate(337,356)"><rect class="bg" shape-rendering="crispEdges" style="stroke: rgb(255, 255, 255); stroke-opacity: 0; fill: rgb(255, 255, 255); fill-opacity: 0; stroke-width: 0px;" width="153" height="79" x="0" y="0"/><g class="scrollbox" transform="" clip-path="url(#legend671a96)"><text class="legendtitletext" text-anchor="start" x="2" y="20.8" style="font-family: Geist; font-size: 16px; fill: rgb(255, 255, 255); fill-opacity: 1; white-space: pre;">Sample (AUC)</text><g class="groups" transform=""><g class="traces" transform="translate(0,37.7)" style="opacity: 1;"><text class="legendtext" text-anchor="start" x="40" y="6.24" style="font-family: Geist; font-size: 16px; fill: rgb(255, 255, 255); fill-opacity: 1; white-space: pre;">Training (0.781)</text><g class="layers" style="opacity: 1;"><g class="legendfill"/><g class="legendlines"><path class="js-line" d="M5,0h30" style="fill: none; stroke: rgb(67, 164, 172); stroke-opacity: 1; stroke-width: 2px;"/></g><g class="legendsymbols"><g class="legendpoints"/></g></g><rect class="legendtoggle" x="0" y="-11.9" width="147.296875" height="23.8" style="fill: rgb(0, 0, 0); fill-opacity: 0;"/></g></g><g class="groups" transform=""><g class="traces" transform="translate(0,61.5)" style="opacity: 1;"><text class="legendtext" text-anchor="start" x="40" y="6.24" style="font-family: Geist; font-size: 16px; fill: rgb(255, 255, 255); fill-opacity: 1; white-space: pre;">Test (0.732)</text><g class="layers" style="opacity: 1;"><g class="legendfill"/><g class="legendlines"><path class="js-line" d="M5,0h30" style="fill: none; stroke: rgb(250, 152, 96); stroke-opacity: 1; stroke-width: 2px;"/></g><g class="legendsymbols"><g class="legendpoints"/></g></g><rect class="legendtoggle" x="0" y="-11.9" width="147.296875" height="23.8" style="fill: rgb(0, 0, 0); fill-opacity: 0;"/></g></g></g><rect class="scrollbar" rx="20" ry="3" width="0" height="0" style="fill: rgb(128, 139, 164); fill-opacity: 1;" x="0" y="0"/></g><g class="g-gtitle"><text class="gtitle" x="65" y="25" text-anchor="start" dy="0em" style="font-family: Geist; font-size: 16px; fill: rgb(255, 255, 255); opacity: 1; font-weight: normal; white-space: pre;"><tspan style="font-weight:bold">LightRF</tspan></text></g><g class="g-xtitle"><text class="xtitle" x="277.5" y="493" text-anchor="middle" style="font-family: Geist; font-size: 16px; fill: rgb(255, 255, 255); opacity: 1; font-weight: normal; white-space: pre;">False Positive Rate</text></g><g class="g-ytitle"><text class="ytitle" transform="rotate(-90,23,242.5)" x="23" y="242.5" text-anchor="middle" style="font-family: Geist; font-size: 16px; fill: rgb(255, 255, 255); opacity: 1; font-weight: normal; white-space: pre;">True Positive Rate</text></g></g></svg>