<svg class="main-svg" xmlns="http://www.w3.org/2000/svg" xmlns:xlink="http://www.w3.org/1999/xlink" width="800" height="600" style="" viewBox="0 0 800 600"><rect x="0" y="0" width="800" height="600" style="fill: rgb(18, 18, 18); fill-opacity: 1;"/><defs id="defs-8735d1"><g class="clips"><clipPath id="clip8735d1xyplot" class="plotclip"><rect width="714" height="218.24999999999997"/></clipPath><clipPath id="clip8735d1xy2plot" class="plotclip"><rect width="714" height="218.25"/></clipPath><clipPath class="axesclip" id="clip8735d1x"><rect x="74" y="0" width="714" height="600"/></clipPath><clipPath class="axesclip" id="clip8735d1y"><rect x="0" y="50" width="800" height="218.24999999999997"/></clipPath><clipPath class="axesclip" id="clip8735d1xy"><rect x="74" y="50" width="714" height="218.24999999999997"/></clipPath><clipPath class="axesclip" id="clip8735d1y2"><rect x="0" y="316.75" width="800" height="218.25"/></clipPath><clipPath class="axesclip" id="clip8735d1xy2"><rect x="74" y="316.75" width="714" height="218.25"/></clipPath></g><g class="gradients"/><g class="patterns"/></defs><g class="bglayer"><rect class="bg" x="74" y="50" width="714" height="218.24999999999997" style="fill: rgb(0, 0, 0); fill-opacity: 0; stroke-width: 0;"/><rect class="bg" x="74" y="316.75" width="714" height="218.25" style="fill: rgb(0, 0, 0); fill-opacity: 0; stroke-width: 0;"/></g><g class="layer-below"><g class="imagelayer"/><g class="shapelayer"/></g><g class="cartesianlayer"><g class="subplot xy"><g class="layer-subplot"><g class="shapelayer"/><g class="imagelayer"/></g><g class="minor-gridlayer"><g class="x"/><g class="y"/></g><g class="gridlayer"><g class="x"/><g class="y"><path class="ygrid crisp" transform="translate(0,237.17)" d="M74,0h714" style="stroke: rgb(64, 64, 64); stroke-opacity: 1; stroke-width: 1px;"/><path class="ygrid crisp" transform="translate(0,171.57)" d="M74,0h714" style="stroke: rgb(64, 64, 64); stroke-opacity: 1; stroke-width: 1px;"/><path class="ygrid crisp" transform="translate(0,105.96000000000001)" d="M74,0h714" style="stroke: rgb(64, 64, 64); stroke-opacity: 1; stroke-width: 1px;"/></g></g><g class="zerolinelayer"/><path class="xlines-below"/><path class="ylines-below"/><g class="overlines-below"/><g class="xaxislayer-below"/><g class="yaxislayer-below"/><g class="overaxes-below"/><g class="plot" transform="translate(74,50)" clip-path="url(#clip8735d1xyplot)"><g class="boxlayer mlayer"><g class="trace boxes" style="opacity: 1;"><path class="box" d="M48.33,78.74H135.42M48.33,83.02H135.42V67.32H48.33ZM91.88,83.02V98.31M91.88,67.32V63.44M70.1,98.31H113.65M70.1,63.44H113.65" style="vector-effect: none; stroke-width: 2px; stroke: rgb(67, 164, 172); stroke-opacity: 1; fill: rgb(67, 164, 172); fill-opacity: 0.6;"/><g class="points"><path class="point" transform="translate(32.24,98.31)" d="M3,0A3,3 0 1,1 0,-3A3,3 0 0,1 3,0Z" style="opacity: 1; stroke-width: 0px; fill: rgb(67, 164, 172); fill-opacity: 0.6;"/><path class="point" transform="translate(20.01,86.73)" d="M3,0A3,3 0 1,1 0,-3A3,3 0 0,1 3,0Z" style="opacity: 1; stroke-width: 0px; fill: rgb(67, 164, 172); fill-opacity: 0.6;"/><path class="point" transform="translate(34.6,83.02)" d="M3,0A3,3 0 1,1 0,-3A3,3 0 0,1 3,0Z" style="opacity: 1; stroke-width: 0px; fill: rgb(67, 164, 172); fill-opacity: 0.6;"/><path class="point" transform="translate(17.7,82.22)" d="M3,0A3,3 0 1,1 0,-3A3,3 0 0,1 3,0Z" style="opacity: 1; stroke-width: 0px; fill: rgb(67, 164, 172); fill-opacity: 0.6;"/><path class="point" transform="translate(23.82,79.08)" d="M3,0A3,3 0 1,1 0,-3A3,3 0 0,1 3,0Z" style="opacity: 1; stroke-width: 0px; fill: rgb(67, 164, 172); fill-opacity: 0.6;"/><path class="point" transform="translate(32.38,78.41)" d="M3,0A3,3 0 1,1 0,-3A3,3 0 0,1 3,0Z" style="opacity: 1; stroke-width: 0px; fill: rgb(67, 164, 172); fill-opacity: 0.6;"/><path class="point" transform="translate(26.08,71.13)" d="M3,0A3,3 0 1,1 0,-3A3,3 0 0,1 3,0Z" style="opacity: 1; stroke-width: 0px; fill: rgb(67, 164, 172); fill-opacity: 0.6;"/><path class="point" transform="translate(30.34,67.32)" d="M3,0A3,3 0 1,1 0,-3A3,3 0 0,1 3,0Z" style="opacity: 1; stroke-width: 0px; fill: rgb(67, 164, 172); fill-opacity: 0.6;"/><path class="point" transform="translate(22.61,63.44)" d="M3,0A3,3 0 1,1 0,-3A3,3 0 0,1 3,0Z" style="opacity: 1; stroke-width: 0px; fill: rgb(67, 164, 172); fill-opacity: 0.6;"/><path class="point" transform="translate(17.5,63.44)" d="M3,0A3,3 0 1,1 0,-3A3,3 0 0,1 3,0Z" style="opacity: 1; stroke-width: 0px; fill: rgb(67, 164, 172); fill-opacity: 0.6;"/></g></g><g class="trace boxes" style="opacity: 1;"><path class="box" d="M226.08,16.41H313.17M226.08,20.96H313.17V11.29H226.08ZM269.63,20.96V21.33M269.63,11.29V0M247.85,21.33H291.4M247.85,0H291.4" style="vector-effect: none; stroke-width: 2px; stroke: rgb(250, 152, 96); stroke-opacity: 1; fill: rgb(250, 152, 96); fill-opacity: 0.6;"/><g class="points"><path class="point" transform="translate(211.08,21.33)" d="M3,0A3,3 0 1,1 0,-3A3,3 0 0,1 3,0Z" style="opacity: 1; stroke-width: 0px; fill: rgb(250, 152, 96); fill-opacity: 0.6;"/><path class="point" transform="translate(197.27,21.24)" d="M3,0A3,3 0 1,1 0,-3A3,3 0 0,1 3,0Z" style="opacity: 1; stroke-width: 0px; fill: rgb(250, 152, 96); fill-opacity: 0.6;"/><path class="point" transform="translate(213.48,20.96)" d="M3,0A3,3 0 1,1 0,-3A3,3 0 0,1 3,0Z" style="opacity: 1; stroke-width: 0px; fill: rgb(250, 152, 96); fill-opacity: 0.6;"/><path class="point" transform="translate(193.8,18.81)" d="M3,0A3,3 0 1,1 0,-3A3,3 0 0,1 3,0Z" style="opacity: 1; stroke-width: 0px; fill: rgb(250, 152, 96); fill-opacity: 0.6;"/><path class="point" transform="translate(202.03,17.38)" d="M3,0A3,3 0 1,1 0,-3A3,3 0 0,1 3,0Z" style="opacity: 1; stroke-width: 0px; fill: rgb(250, 152, 96); fill-opacity: 0.6;"/><path class="point" transform="translate(209.14,15.44)" d="M3,0A3,3 0 1,1 0,-3A3,3 0 0,1 3,0Z" style="opacity: 1; stroke-width: 0px; fill: rgb(250, 152, 96); fill-opacity: 0.6;"/><path class="point" transform="translate(203.98,11.43)" d="M3,0A3,3 0 1,1 0,-3A3,3 0 0,1 3,0Z" style="opacity: 1; stroke-width: 0px; fill: rgb(250, 152, 96); fill-opacity: 0.6;"/><path class="point" transform="translate(206.68,11.29)" d="M3,0A3,3 0 1,1 0,-3A3,3 0 0,1 3,0Z" style="opacity: 1; stroke-width: 0px; fill: rgb(250, 152, 96); fill-opacity: 0.6;"/><path class="point" transform="translate(201.75,10.89)" d="M3,0A3,3 0 1,1 0,-3A3,3 0 0,1 3,0Z" style="opacity: 1; stroke-width: 0px; fill: rgb(250, 152, 96); fill-opacity: 0.6;"/><path class="point" transform="translate(198.73,0)" d="M3,0A3,3 0 1,1 0,-3A3,3 0 0,1 3,0Z" style="opacity: 1; stroke-width: 0px; fill: rgb(250, 152, 96); fill-opacity: 0.6;"/></g></g><g class="trace boxes" style="opacity: 1;"><path class="box" d="M403.83,97.97H490.92M403.83,104.81H490.92V89.95H403.83ZM447.38,104.81V118.33M447.38,89.95V87.3M425.6,118.33H469.15M425.6,87.3H469.15" style="vector-effect: none; stroke-width: 2px; stroke: rgb(194, 58, 112); stroke-opacity: 1; fill: rgb(194, 58, 112); fill-opacity: 0.6;"/><g class="points"><path class="point" transform="translate(386.7,118.33)" d="M3,0A3,3 0 1,1 0,-3A3,3 0 0,1 3,0Z" style="opacity: 1; stroke-width: 0px; fill: rgb(194, 58, 112); fill-opacity: 0.6;"/><path class="point" transform="translate(376.27,108.76)" d="M3,0A3,3 0 1,1 0,-3A3,3 0 0,1 3,0Z" style="opacity: 1; stroke-width: 0px; fill: rgb(194, 58, 112); fill-opacity: 0.6;"/><path class="point" transform="translate(389.13,104.81)" d="M3,0A3,3 0 1,1 0,-3A3,3 0 0,1 3,0Z" style="opacity: 1; stroke-width: 0px; fill: rgb(194, 58, 112); fill-opacity: 0.6;"/><path class="point" transform="translate(374.12,99.18)" d="M3,0A3,3 0 1,1 0,-3A3,3 0 0,1 3,0Z" style="opacity: 1; stroke-width: 0px; fill: rgb(194, 58, 112); fill-opacity: 0.6;"/><path class="point" transform="translate(379.61,98.7)" d="M3,0A3,3 0 1,1 0,-3A3,3 0 0,1 3,0Z" style="opacity: 1; stroke-width: 0px; fill: rgb(194, 58, 112); fill-opacity: 0.6;"/><path class="point" transform="translate(387.25,97.24)" d="M3,0A3,3 0 1,1 0,-3A3,3 0 0,1 3,0Z" style="opacity: 1; stroke-width: 0px; fill: rgb(194, 58, 112); fill-opacity: 0.6;"/><path class="point" transform="translate(381.63,93.66)" d="M3,0A3,3 0 1,1 0,-3A3,3 0 0,1 3,0Z" style="opacity: 1; stroke-width: 0px; fill: rgb(194, 58, 112); fill-opacity: 0.6;"/><path class="point" transform="translate(385.42,89.95)" d="M3,0A3,3 0 1,1 0,-3A3,3 0 0,1 3,0Z" style="opacity: 1; stroke-width: 0px; fill: rgb(194, 58, 112); fill-opacity: 0.6;"/><path class="point" transform="translate(377.88,87.6)" d="M3,0A3,3 0 1,1 0,-3A3,3 0 0,1 3,0Z" style="opacity: 1; stroke-width: 0px; fill: rgb(194, 58, 112); fill-opacity: 0.6;"/><path class="point" transform="translate(373.13,87.3)" d="M3,0A3,3 0 1,1 0,-3A3,3 0 0,1 3,0Z" style="opacity: 1; stroke-width: 0px; fill: rgb(194, 58, 112); fill-opacity: 0.6;"/></g></g><g class="trace boxes" style="opacity: 1;"><path class="box" d="M581.58,67.26H668.67M581.58,73.84H668.67V56.81H581.58ZM625.13,73.84V77.9M625.13,56.81V45.63M603.35,77.9H646.9M603.35,45.63H646.9" style="vector-effect: none; stroke-width: 2px; stroke: rgb(53, 116, 167); stroke-opacity: 1; fill: rgb(53, 116, 167); fill-opacity: 0.6;"/><g class="points"><path class="point" transform="translate(566.58,77.9)" d="M3,0A3,3 0 1,1 0,-3A3,3 0 0,1 3,0Z" style="opacity: 1; stroke-width: 0px; fill: rgb(53, 116, 167); fill-opacity: 0.6;"/><path class="point" transform="translate(552.29,77.83)" d="M3,0A3,3 0 1,1 0,-3A3,3 0 0,1 3,0Z" style="opacity: 1; stroke-width: 0px; fill: rgb(53, 116, 167); fill-opacity: 0.6;"/><path class="point" transform="translate(568.79,73.84)" d="M3,0A3,3 0 1,1 0,-3A3,3 0 0,1 3,0Z" style="opacity: 1; stroke-width: 0px; fill: rgb(53, 116, 167); fill-opacity: 0.6;"/><path class="point" transform="translate(550.45,68.71)" d="M3,0A3,3 0 1,1 0,-3A3,3 0 0,1 3,0Z" style="opacity: 1; stroke-width: 0px; fill: rgb(53, 116, 167); fill-opacity: 0.6;"/><path class="point" transform="translate(557.19,68.46)" d="M3,0A3,3 0 1,1 0,-3A3,3 0 0,1 3,0Z" style="opacity: 1; stroke-width: 0px; fill: rgb(53, 116, 167); fill-opacity: 0.6;"/><path class="point" transform="translate(565.38,66.05)" d="M3,0A3,3 0 1,1 0,-3A3,3 0 0,1 3,0Z" style="opacity: 1; stroke-width: 0px; fill: rgb(53, 116, 167); fill-opacity: 0.6;"/><path class="point" transform="translate(559.43,60.42)" d="M3,0A3,3 0 1,1 0,-3A3,3 0 0,1 3,0Z" style="opacity: 1; stroke-width: 0px; fill: rgb(53, 116, 167); fill-opacity: 0.6;"/><path class="point" transform="translate(562.71,56.81)" d="M3,0A3,3 0 1,1 0,-3A3,3 0 0,1 3,0Z" style="opacity: 1; stroke-width: 0px; fill: rgb(53, 116, 167); fill-opacity: 0.6;"/><path class="point" transform="translate(556.53,51.46)" d="M3,0A3,3 0 1,1 0,-3A3,3 0 0,1 3,0Z" style="opacity: 1; stroke-width: 0px; fill: rgb(53, 116, 167); fill-opacity: 0.6;"/><path class="point" transform="translate(552.9,45.63)" d="M3,0A3,3 0 1,1 0,-3A3,3 0 0,1 3,0Z" style="opacity: 1; stroke-width: 0px; fill: rgb(53, 116, 167); fill-opacity: 0.6;"/></g></g></g></g><g class="overplot"/><path class="xlines-above crisp" d="M0,0" style="fill: none;"/><path class="ylines-above crisp" d="" style="fill: none; stroke-width: 1px; stroke: rgb(0, 0, 0); stroke-opacity: 0;"/><g class="overlines-above"/><g class="xaxislayer-above"/><g class="yaxislayer-above"><path class="ytick ticks crisp" d="M73,0h-5" transform="translate(0,237.17)" style="stroke: rgb(0, 0, 0); stroke-opacity: 0; stroke-width: 1px;"/><path class="ytick ticks crisp" d="M73,0h-5" transform="translate(0,171.57)" style="stroke: rgb(0, 0, 0); stroke-opacity: 0; stroke-width: 1px;"/><path class="ytick ticks crisp" d="M73,0h-5" transform="translate(0,105.96000000000001)" style="stroke: rgb(0, 0, 0); stroke-opacity: 0; stroke-width: 1px;"/><g class="ytick"><text text-anchor="end" x="64.8" y="5.6" transform="translate(0,237.17)" style="font-family: Geist; font-size: 16px; fill: rgb(255, 255, 255); fill-opacity: 1; white-space: pre; opacity: 1;">0.6</text></g><g class="ytick"><text text-anchor="end" x="64.8" y="5.6" style="font-family: Geist; font-size: 16px; fill: rgb(255, 255, 255); fill-opacity: 1; white-space: pre; opacity: 1;" transform="translate(0,171.57)">0.7</text></g><g class="ytick"><text text-anchor="end" x="64.8" y="5.6" style="font-family: Geist; font-size: 16px; fill: rgb(255, 255, 255); fill-opacity: 1; white-space: pre; opacity: 1;" transform="translate(0,105.96000000000001)">0.8</text></g></g><g class="overaxes-above"/></g><g class="subplot xy2"><g class="layer-subplot"><g class="shapelayer"/><g class="imagelayer"/></g><g class="minor-gridlayer"><g class="x"/><g class="y2"/></g><g class="gridlayer"><g class="x"/><g class="y2"><path class="y2grid crisp" transform="translate(0,503.91999999999996)" d="M74,0h714" style="stroke: rgb(64, 64, 64); stroke-opacity: 1; stroke-width: 1px;"/><path class="y2grid crisp" transform="translate(0,438.32)" d="M74,0h714" style="stroke: rgb(64, 64, 64); stroke-opacity: 1; stroke-width: 1px;"/><path class="y2grid crisp" transform="translate(0,372.71)" d="M74,0h714" style="stroke: rgb(64, 64, 64); stroke-opacity: 1; stroke-width: 1px;"/></g></g><g class="zerolinelayer"/><path class="xlines-below"/><path class="ylines-below"/><g class="overlines-below"/><g class="xaxislayer-below"/><g class="yaxislayer-below"/><g class="overaxes-below"/><g class="plot" transform="translate(74,316.75)" clip-path="url(#clip8735d1xy2plot)"><g class="boxlayer mlayer"><g class="trace boxes" style="opacity: 1;"><path class="box" d="M48.33,88.76H135.42M48.33,119.74H135.42V66.89H48.33ZM91.88,119.74V130.2M91.88,66.89V45.6M70.1,130.2H113.65M70.1,45.6H113.65" style="vector-effect: none; stroke-width: 2px; stroke: rgb(67, 164, 172); stroke-opacity: 1; fill: rgb(67, 164, 172); fill-opacity: 0.6;"/><g class="points"><path class="point" transform="translate(30.7,218.25)" d="M3,0A3,3 0 1,1 0,-3A3,3 0 0,1 3,0Z" style="opacity: 1; stroke-width: 0px; fill: rgb(67, 164, 172); fill-opacity: 0.6;"/><path class="point" transform="translate(20.97,130.2)" d="M3,0A3,3 0 1,1 0,-3A3,3 0 0,1 3,0Z" style="opacity: 1; stroke-width: 0px; fill: rgb(67, 164, 172); fill-opacity: 0.6;"/><path class="point" transform="translate(33.56,119.74)" d="M3,0A3,3 0 1,1 0,-3A3,3 0 0,1 3,0Z" style="opacity: 1; stroke-width: 0px; fill: rgb(67, 164, 172); fill-opacity: 0.6;"/><path class="point" transform="translate(18.48,112.93)" d="M3,0A3,3 0 1,1 0,-3A3,3 0 0,1 3,0Z" style="opacity: 1; stroke-width: 0px; fill: rgb(67, 164, 172); fill-opacity: 0.6;"/><path class="point" transform="translate(24.19,97.4)" d="M3,0A3,3 0 1,1 0,-3A3,3 0 0,1 3,0Z" style="opacity: 1; stroke-width: 0px; fill: rgb(67, 164, 172); fill-opacity: 0.6;"/><path class="point" transform="translate(31.59,80.13)" d="M3,0A3,3 0 1,1 0,-3A3,3 0 0,1 3,0Z" style="opacity: 1; stroke-width: 0px; fill: rgb(67, 164, 172); fill-opacity: 0.6;"/><path class="point" transform="translate(26.07,80.13)" d="M3,0A3,3 0 1,1 0,-3A3,3 0 0,1 3,0Z" style="opacity: 1; stroke-width: 0px; fill: rgb(67, 164, 172); fill-opacity: 0.6;"/><path class="point" transform="translate(30.3,66.89)" d="M3,0A3,3 0 1,1 0,-3A3,3 0 0,1 3,0Z" style="opacity: 1; stroke-width: 0px; fill: rgb(67, 164, 172); fill-opacity: 0.6;"/><path class="point" transform="translate(22.55,62.87)" d="M3,0A3,3 0 1,1 0,-3A3,3 0 0,1 3,0Z" style="opacity: 1; stroke-width: 0px; fill: rgb(67, 164, 172); fill-opacity: 0.6;"/><path class="point" transform="translate(16.98,45.6)" d="M3,0A3,3 0 1,1 0,-3A3,3 0 0,1 3,0Z" style="opacity: 1; stroke-width: 0px; fill: rgb(67, 164, 172); fill-opacity: 0.6;"/></g></g><g class="trace boxes" style="opacity: 1;"><path class="box" d="M226.08,97.4H313.17M226.08,119.74H313.17V65.07H226.08ZM269.63,119.74V183.72M269.63,65.07V11.07M247.85,183.72H291.4M247.85,11.07H291.4" style="vector-effect: none; stroke-width: 2px; stroke: rgb(250, 152, 96); stroke-opacity: 1; fill: rgb(250, 152, 96); fill-opacity: 0.6;"/><g class="points"><path class="point" transform="translate(210.49,183.72)" d="M3,0A3,3 0 1,1 0,-3A3,3 0 0,1 3,0Z" style="opacity: 1; stroke-width: 0px; fill: rgb(250, 152, 96); fill-opacity: 0.6;"/><path class="point" transform="translate(196.06,129.34)" d="M3,0A3,3 0 1,1 0,-3A3,3 0 0,1 3,0Z" style="opacity: 1; stroke-width: 0px; fill: rgb(250, 152, 96); fill-opacity: 0.6;"/><path class="point" transform="translate(213.64,119.74)" d="M3,0A3,3 0 1,1 0,-3A3,3 0 0,1 3,0Z" style="opacity: 1; stroke-width: 0px; fill: rgb(250, 152, 96); fill-opacity: 0.6;"/><path class="point" transform="translate(194.21,97.4)" d="M3,0A3,3 0 1,1 0,-3A3,3 0 0,1 3,0Z" style="opacity: 1; stroke-width: 0px; fill: rgb(250, 152, 96); fill-opacity: 0.6;"/><path class="point" transform="translate(201.52,97.4)" d="M3,0A3,3 0 1,1 0,-3A3,3 0 0,1 3,0Z" style="opacity: 1; stroke-width: 0px; fill: rgb(250, 152, 96); fill-opacity: 0.6;"/><path class="point" transform="translate(210.24,97.4)" d="M3,0A3,3 0 1,1 0,-3A3,3 0 0,1 3,0Z" style="opacity: 1; stroke-width: 0px; fill: rgb(250, 152, 96); fill-opacity: 0.6;"/><path class="point" transform="translate(203.82,95.67)" d="M3,0A3,3 0 1,1 0,-3A3,3 0 0,1 3,0Z" style="opacity: 1; stroke-width: 0px; fill: rgb(250, 152, 96); fill-opacity: 0.6;"/><path class="point" transform="translate(207.95,65.07)" d="M3,0A3,3 0 1,1 0,-3A3,3 0 0,1 3,0Z" style="opacity: 1; stroke-width: 0px; fill: rgb(250, 152, 96); fill-opacity: 0.6;"/><path class="point" transform="translate(200.13,45.6)" d="M3,0A3,3 0 1,1 0,-3A3,3 0 0,1 3,0Z" style="opacity: 1; stroke-width: 0px; fill: rgb(250, 152, 96); fill-opacity: 0.6;"/><path class="point" transform="translate(195.56,11.07)" d="M3,0A3,3 0 1,1 0,-3A3,3 0 0,1 3,0Z" style="opacity: 1; stroke-width: 0px; fill: rgb(250, 152, 96); fill-opacity: 0.6;"/></g></g><g class="trace boxes" style="opacity: 1;"><path class="box" d="M403.83,105.4H490.92M403.83,150.72H490.92V80.13H403.83ZM447.38,150.72V183.72M447.38,80.13V59.41M425.6,183.72H469.15M425.6,59.41H469.15" style="vector-effect: none; stroke-width: 2px; stroke: rgb(194, 58, 112); stroke-opacity: 1; fill: rgb(194, 58, 112); fill-opacity: 0.6;"/><g class="points"><path class="point" transform="translate(387.02,183.72)" d="M3,0A3,3 0 1,1 0,-3A3,3 0 0,1 3,0Z" style="opacity: 1; stroke-width: 0px; fill: rgb(194, 58, 112); fill-opacity: 0.6;"/><path class="point" transform="translate(375.39,166.46)" d="M3,0A3,3 0 1,1 0,-3A3,3 0 0,1 3,0Z" style="opacity: 1; stroke-width: 0px; fill: rgb(194, 58, 112); fill-opacity: 0.6;"/><path class="point" transform="translate(390.04,150.72)" d="M3,0A3,3 0 1,1 0,-3A3,3 0 0,1 3,0Z" style="opacity: 1; stroke-width: 0px; fill: rgb(194, 58, 112); fill-opacity: 0.6;"/><path class="point" transform="translate(373.42,114.66)" d="M3,0A3,3 0 1,1 0,-3A3,3 0 0,1 3,0Z" style="opacity: 1; stroke-width: 0px; fill: rgb(194, 58, 112); fill-opacity: 0.6;"/><path class="point" transform="translate(379.42,112.93)" d="M3,0A3,3 0 1,1 0,-3A3,3 0 0,1 3,0Z" style="opacity: 1; stroke-width: 0px; fill: rgb(194, 58, 112); fill-opacity: 0.6;"/><path class="point" transform="translate(387.65,97.88)" d="M3,0A3,3 0 1,1 0,-3A3,3 0 0,1 3,0Z" style="opacity: 1; stroke-width: 0px; fill: rgb(194, 58, 112); fill-opacity: 0.6;"/><path class="point" transform="translate(381.65,97.4)" d="M3,0A3,3 0 1,1 0,-3A3,3 0 0,1 3,0Z" style="opacity: 1; stroke-width: 0px; fill: rgb(194, 58, 112); fill-opacity: 0.6;"/><path class="point" transform="translate(385.23,80.13)" d="M3,0A3,3 0 1,1 0,-3A3,3 0 0,1 3,0Z" style="opacity: 1; stroke-width: 0px; fill: rgb(194, 58, 112); fill-opacity: 0.6;"/><path class="point" transform="translate(377.88,62.87)" d="M3,0A3,3 0 1,1 0,-3A3,3 0 0,1 3,0Z" style="opacity: 1; stroke-width: 0px; fill: rgb(194, 58, 112); fill-opacity: 0.6;"/><path class="point" transform="translate(373.17,59.41)" d="M3,0A3,3 0 1,1 0,-3A3,3 0 0,1 3,0Z" style="opacity: 1; stroke-width: 0px; fill: rgb(194, 58, 112); fill-opacity: 0.6;"/></g></g><g class="trace boxes" style="opacity: 1;"><path class="box" d="M581.58,114.08H668.67M581.58,131.93H668.67V80.13H581.58ZM625.13,131.93V183.72M625.13,80.13V45.6M603.35,183.72H646.9M603.35,45.6H646.9" style="vector-effect: none; stroke-width: 2px; stroke: rgb(53, 116, 167); stroke-opacity: 1; fill: rgb(53, 116, 167); fill-opacity: 0.6;"/><g class="points"><path class="point" transform="translate(565.23,183.72)" d="M3,0A3,3 0 1,1 0,-3A3,3 0 0,1 3,0Z" style="opacity: 1; stroke-width: 0px; fill: rgb(53, 116, 167); fill-opacity: 0.6;"/><path class="point" transform="translate(552.57,131.93)" d="M3,0A3,3 0 1,1 0,-3A3,3 0 0,1 3,0Z" style="opacity: 1; stroke-width: 0px; fill: rgb(53, 116, 167); fill-opacity: 0.6;"/><path class="point" transform="translate(568.45,131.93)" d="M3,0A3,3 0 1,1 0,-3A3,3 0 0,1 3,0Z" style="opacity: 1; stroke-width: 0px; fill: rgb(53, 116, 167); fill-opacity: 0.6;"/><path class="point" transform="translate(550.46,128.47)" d="M3,0A3,3 0 1,1 0,-3A3,3 0 0,1 3,0Z" style="opacity: 1; stroke-width: 0px; fill: rgb(53, 116, 167); fill-opacity: 0.6;"/><path class="point" transform="translate(557.1,128.47)" d="M3,0A3,3 0 1,1 0,-3A3,3 0 0,1 3,0Z" style="opacity: 1; stroke-width: 0px; fill: rgb(53, 116, 167); fill-opacity: 0.6;"/><path class="point" transform="translate(565.55,99.7)" d="M3,0A3,3 0 1,1 0,-3A3,3 0 0,1 3,0Z" style="opacity: 1; stroke-width: 0px; fill: rgb(53, 116, 167); fill-opacity: 0.6;"/><path class="point" transform="translate(559.32,97.88)" d="M3,0A3,3 0 1,1 0,-3A3,3 0 0,1 3,0Z" style="opacity: 1; stroke-width: 0px; fill: rgb(53, 116, 167); fill-opacity: 0.6;"/><path class="point" transform="translate(563.34,80.13)" d="M3,0A3,3 0 1,1 0,-3A3,3 0 0,1 3,0Z" style="opacity: 1; stroke-width: 0px; fill: rgb(53, 116, 167); fill-opacity: 0.6;"/><path class="point" transform="translate(556.12,62.87)" d="M3,0A3,3 0 1,1 0,-3A3,3 0 0,1 3,0Z" style="opacity: 1; stroke-width: 0px; fill: rgb(53, 116, 167); fill-opacity: 0.6;"/><path class="point" transform="translate(552.07,45.6)" d="M3,0A3,3 0 1,1 0,-3A3,3 0 0,1 3,0Z" style="opacity: 1; stroke-width: 0px; fill: rgb(53, 116, 167); fill-opacity: 0.6;"/></g></g></g></g><g class="overplot"/><path class="xlines-above crisp" d="M0,0" style="fill: none;"/><path class="ylines-above crisp" d="" style="fill: none; stroke-width: 1px; stroke: rgb(0, 0, 0); stroke-opacity: 0;"/><g class="overlines-above"/><g class="xaxislayer-above"><g class="xtick"><text text-anchor="middle" x="0" y="552" transform="translate(165.88,0)" style="font-family: Geist; font-size: 16px; fill: rgb(255, 255, 255); fill-opacity: 1; white-space: pre; opacity: 1;">GLMNET</text></g><g class="xtick"><text text-anchor="middle" x="0" y="552" transform="translate(343.63,0)" style="font-family: Geist; font-size: 16px; fill: rgb(255, 255, 255); fill-opacity: 1; white-space: pre; opacity: 1;">CART</text></g><g class="xtick"><text text-anchor="middle" x="0" y="552" transform="translate(521.38,0)" style="font-family: Geist; font-size: 16px; fill: rgb(255, 255, 255); fill-opacity: 1; white-space: pre; opacity: 1;">LightRF</text></g><g class="xtick"><text text-anchor="middle" x="0" y="552" transform="translate(699.13,0)" style="font-family: Geist; font-size: 16px; fill: rgb(255, 255, 255); fill-opacity: 1; white-space: pre; opacity: 1;">LightGBM</text></g></g><g class="yaxislayer-above"><path class="y2tick ticks crisp" d="M73,0h-5" transform="translate(0,503.91999999999996)" style="stroke: rgb(0, 0, 0); stroke-opacity: 0; stroke-width: 1px;"/><path class="y2tick ticks crisp" d="M73,0h-5" transform="translate(0,438.32)" style="stroke: rgb(0, 0, 0); stroke-opacity: 0; stroke-width: 1px;"/><path class="y2tick ticks crisp" d="M73,0h-5" transform="translate(0,372.71)" style="stroke: rgb(0, 0, 0); stroke-opacity: 0; stroke-width: 1px;"/><g class="y2tick"><text text-anchor="end" x="64.8" y="5.6" transform="translate(0,503.91999999999996)" style="font-family: Geist; font-size: 16px; fill: rgb(255, 255, 255); fill-opacity: 1; white-space: pre; opacity: 1;">0.6</text></g><g class="y2tick"><text text-anchor="end" x="64.8" y="5.6" style="font-family: Geist; font-size: 16px; fill: rgb(255, 255, 255); fill-opacity: 1; white-space: pre; opacity: 1;" transform="translate(0,438.32)">0.7</text></g><g class="y2tick"><text text-anchor="end" x="64.8" y="5.6" style="font-family: Geist; font-size: 16px; fill: rgb(255, 255, 255); fill-opacity: 1; white-space: pre; opacity: 1;" transform="translate(0,372.71)">0.8</text></g></g><g class="overaxes-above"/></g></g><g class="polarlayer"/><g class="smithlayer"/><g class="ternarylayer"/><g class="geolayer"/><g class="funnelarealayer"/><g class="pielayer"/><g class="iciclelayer"/><g class="treemaplayer"/><g class="sunburstlayer"/><g class="glimages"/><defs id="topdefs-8735d1"><g class="clips"/></defs><g class="layer-above"><g class="imagelayer"/><g class="shapelayer"/></g><g class="infolayer"><g class="g-gtitle"><text class="gtitle" x="74" y="25" text-anchor="start" dy="0em" style="font-family: Geist; font-size: 16px; fill: rgb(255, 255, 255); opacity: 1; font-weight: normal; white-space: pre;"><tspan style="font-weight:bold"></tspan></text></g><g class="g-xtitle"/><g class="g-ytitle" transform="translate(3.4033203125,0)"><text class="ytitle" transform="rotate(-90,12.596874999999997,159.125)" x="12.596874999999997" y="159.125" text-anchor="middle" style="font-family: Geist; font-size: 16px; fill: rgb(255, 255, 255); opacity: 1; font-weight: normal; white-space: pre;">Training Balanced Accuracy</text></g><g class="g-y2title" transform="translate(3.4033203125,0)"><text class="y2title" transform="rotate(-90,12.596874999999997,425.875)" x="12.596874999999997" y="425.875" text-anchor="middle" style="font-family: Geist; font-size: 16px; fill: rgb(255, 255, 255); opacity: 1; font-weight: normal; white-space: pre;">Test Balanced Accuracy</text></g></g></svg>