<svg class="main-svg" xmlns="http://www.w3.org/2000/svg" xmlns:xlink="http://www.w3.org/1999/xlink" width="500" height="500" style="" viewBox="0 0 500 500"><rect x="0" y="0" width="500" height="500" style="fill: rgb(18, 18, 18); fill-opacity: 1;"/><defs id="defs-40d551"><g class="clips"><clipPath id="clip40d551xyplot" class="plotclip"><rect width="425" height="385"/></clipPath><clipPath class="axesclip" id="clip40d551x"><rect x="65" y="0" width="425" height="500"/></clipPath><clipPath class="axesclip" id="clip40d551y"><rect x="0" y="50" width="500" height="385"/></clipPath><clipPath class="axesclip" id="clip40d551xy"><rect x="65" y="50" width="425" height="385"/></clipPath></g><g class="gradients"/><g class="patterns"/></defs><g class="bglayer"><rect class="bg" x="65" y="50" width="425" height="385" style="fill: rgb(0, 0, 0); fill-opacity: 0; stroke-width: 0;"/></g><g class="layer-below"><g class="imagelayer"/><g class="shapelayer"/></g><g class="cartesianlayer"><g class="subplot xy"><g class="layer-subplot"><g class="shapelayer"/><g class="imagelayer"/></g><g class="minor-gridlayer"><g class="x"/><g class="y"/></g><g class="gridlayer"><g class="x"><path class="xgrid crisp" transform="translate(102.5,0)" d="M0,50v385" style="stroke: rgb(64, 64, 64); stroke-opacity: 1; stroke-width: 1px;"/><path class="xgrid crisp" transform="translate(172.5,0)" d="M0,50v385" style="stroke: rgb(64, 64, 64); stroke-opacity: 1; stroke-width: 1px;"/><path class="xgrid crisp" transform="translate(242.5,0)" d="M0,50v385" style="stroke: rgb(64, 64, 64); stroke-opacity: 1; stroke-width: 1px;"/><path class="xgrid crisp" transform="translate(312.5,0)" d="M0,50v385" style="stroke: rgb(64, 64, 64); stroke-opacity: 1; stroke-width: 1px;"/><path class="xgrid crisp" transform="translate(382.5,0)" d="M0,50v385" style="stroke: rgb(64, 64, 64); stroke-opacity: 1; stroke-width: 1px;"/><path class="xgrid crisp" transform="translate(452.5,0)" d="M0,50v385" style="stroke: rgb(64, 64, 64); stroke-opacity: 1; stroke-width: 1px;"/></g><g class="y"><path class="ygrid crisp" transform="translate(0,417.5)" d="M65,0h425" style="stroke: rgb(64, 64, 64); stroke-opacity: 1; stroke-width: 1px;"/><path class="ygrid crisp" transform="translate(0,347.5)" d="M65,0h425" style="stroke: rgb(64, 64, 64); stroke-opacity: 1; stroke-width: 1px;"/><path class="ygrid crisp" transform="translate(0,277.5)" d="M65,0h425" style="stroke: rgb(64, 64, 64); stroke-opacity: 1; stroke-width: 1px;"/><path class="ygrid crisp" transform="translate(0,207.5)" d="M65,0h425" style="stroke: rgb(64, 64, 64); stroke-opacity: 1; stroke-width: 1px;"/><path class="ygrid crisp" transform="translate(0,137.5)" d="M65,0h425" style="stroke: rgb(64, 64, 64); stroke-opacity: 1; stroke-width: 1px;"/><path class="ygrid crisp" transform="translate(0,67.5)" d="M65,0h425" style="stroke: rgb(64, 64, 64); stroke-opacity: 1; stroke-width: 1px;"/></g></g><g class="zerolinelayer"/><path class="xlines-below"/><path class="ylines-below"/><g class="overlines-below"/><g class="xaxislayer-below"/><g class="yaxislayer-below"/><g class="overaxes-below"/><g class="plot" transform="translate(65,50)" clip-path="url(#clip40d551xyplot)"><g class="scatterlayer mlayer"><g class="trace scatter trace0dbdbc" style="stroke-miterlimit: 2; opacity: 1;"><g class="fills"/><g class="errorbars"/><g class="lines"><path class="js-line" d="M387.5,17.5L376.95,17.5L354.82,18.3L200.92,25.72L178.78,27.12L141.96,30.33L134.52,31.53L122.31,34.14L119.21,35.14L114.04,37.14L112.59,39.55L97.49,70.82L82.59,106.9L71.22,135.57L66.67,150L56.94,183.28L48.88,212.95L44.95,229.58L43.09,248.63L41.84,266.47L41.02,280.1L38.12,338.03L37.5,352.06L37.5,367.5" style="vector-effect: none; fill: none; stroke: rgb(67, 164, 172); stroke-opacity: 1; stroke-width: 2px; opacity: 1;"/></g><g class="points"/><g class="text"/></g><g class="trace scatter trace937f79" style="stroke-miterlimit: 2; opacity: 1;"><g class="fills"/><g class="errorbars"/><g class="lines"><path class="js-line" d="M387.5,17.5L383.78,30.13L361.44,35.54L344.68,37.35L327.93,42.76L307.45,46.37L281.38,48.17L259.04,49.97L238.56,49.97L190.16,49.97L175.27,53.58L175.27,57.19L173.4,60.8L169.68,62.6L167.82,64.41L164.1,64.41L162.23,68.02L158.51,69.82L156.65,78.84L154.79,80.64L147.34,104.1L143.62,116.73L141.76,120.34L121.28,161.83L115.69,178.07L111.97,185.28L104.52,197.91L102.66,197.91L91.49,228.58L85.9,253.84L74.73,264.66L72.87,266.47L72.87,268.27L59.84,286.31L57.98,286.31L54.26,286.31L54.26,298.94L54.26,307.96L50.53,320.59L50.53,326.01L48.67,342.24L44.95,358.48L43.09,362.09L37.5,367.5" style="vector-effect: none; fill: none; stroke: rgb(250, 152, 96); stroke-opacity: 1; stroke-width: 2px; opacity: 1;"/></g><g class="points"/><g class="text"/></g></g></g><g class="overplot"/><path class="xlines-above crisp" d="" style="fill: none; stroke-width: 1px; stroke: rgb(0, 0, 0); stroke-opacity: 0;"/><path class="ylines-above crisp" d="" style="fill: none; stroke-width: 1px; stroke: rgb(0, 0, 0); stroke-opacity: 0;"/><g class="overlines-above"/><g class="xaxislayer-above"><path class="xtick ticks crisp" d="M0,436v5" transform="translate(102.5,0)" style="stroke: rgb(0, 0, 0); stroke-opacity: 0; stroke-width: 1px;"/><path class="xtick ticks crisp" d="M0,436v5" transform="translate(172.5,0)" style="stroke: rgb(0, 0, 0); stroke-opacity: 0; stroke-width: 1px;"/><path class="xtick ticks crisp" d="M0,436v5" transform="translate(242.5,0)" style="stroke: rgb(0, 0, 0); stroke-opacity: 0; stroke-width: 1px;"/><path class="xtick ticks crisp" d="M0,436v5" transform="translate(312.5,0)" style="stroke: rgb(0, 0, 0); stroke-opacity: 0; stroke-width: 1px;"/><path class="xtick ticks crisp" d="M0,436v5" transform="translate(382.5,0)" style="stroke: rgb(0, 0, 0); stroke-opacity: 0; stroke-width: 1px;"/><path class="xtick ticks crisp" d="M0,436v5" transform="translate(452.5,0)" style="stroke: rgb(0, 0, 0); stroke-opacity: 0; stroke-width: 1px;"/><g class="xtick"><text text-anchor="middle" x="0" y="460.2" transform="translate(102.5,0)" style="font-family: Geist; font-size: 16px; fill: rgb(255, 255, 255); fill-opacity: 1; white-space: pre; opacity: 1;">0</text></g><g class="xtick"><text text-anchor="middle" x="0" y="460.2" style="font-family: Geist; font-size: 16px; fill: rgb(255, 255, 255); fill-opacity: 1; white-space: pre; opacity: 1;" transform="translate(172.5,0)">0.2</text></g><g class="xtick"><text text-anchor="middle" x="0" y="460.2" style="font-family: Geist; font-size: 16px; fill: rgb(255, 255, 255); fill-opacity: 1; white-space: pre; opacity: 1;" transform="translate(242.5,0)">0.4</text></g><g class="xtick"><text text-anchor="middle" x="0" y="460.2" style="font-family: Geist; font-size: 16px; fill: rgb(255, 255, 255); fill-opacity: 1; white-space: pre; opacity: 1;" transform="translate(312.5,0)">0.6</text></g><g class="xtick"><text text-anchor="middle" x="0" y="460.2" style="font-family: Geist; font-size: 16px; fill: rgb(255, 255, 255); fill-opacity: 1; white-space: pre; opacity: 1;" transform="translate(382.5,0)">0.8</text></g><g class="xtick"><text text-anchor="middle" x="0" y="460.2" style="font-family: Geist; font-size: 16px; fill: rgb(255, 255, 255); fill-opacity: 1; white-space: pre; opacity: 1;" transform="translate(452.5,0)">1</text></g></g><g class="yaxislayer-above"><path class="ytick ticks crisp" d="M64,0h-5" transform="translate(0,417.5)" style="stroke: rgb(0, 0, 0); stroke-opacity: 0; stroke-width: 1px;"/><path class="ytick ticks crisp" d="M64,0h-5" transform="translate(0,347.5)" style="stroke: rgb(0, 0, 0); stroke-opacity: 0; stroke-width: 1px;"/><path class="ytick ticks crisp" d="M64,0h-5" transform="translate(0,277.5)" style="stroke: rgb(0, 0, 0); stroke-opacity: 0; stroke-width: 1px;"/><path class="ytick ticks crisp" d="M64,0h-5" transform="translate(0,207.5)" style="stroke: rgb(0, 0, 0); stroke-opacity: 0; stroke-width: 1px;"/><path class="ytick ticks crisp" d="M64,0h-5" transform="translate(0,137.5)" style="stroke: rgb(0, 0, 0); stroke-opacity: 0; stroke-width: 1px;"/><path class="ytick ticks crisp" d="M64,0h-5" transform="translate(0,67.5)" style="stroke: rgb(0, 0, 0); stroke-opacity: 0; stroke-width: 1px;"/><g class="ytick"><text text-anchor="end" x="55.8" y="5.6" transform="translate(0,417.5)" style="font-family: Geist; font-size: 16px; fill: rgb(255, 255, 255); fill-opacity: 1; white-space: pre; opacity: 1;">0</text></g><g class="ytick"><text text-anchor="end" x="55.8" y="5.6" style="font-family: Geist; font-size: 16px; fill: rgb(255, 255, 255); fill-opacity: 1; white-space: pre; opacity: 1;" transform="translate(0,347.5)">0.2</text></g><g class="ytick"><text text-anchor="end" x="55.8" y="5.6" style="font-family: Geist; font-size: 16px; fill: rgb(255, 255, 255); fill-opacity: 1; white-space: pre; opacity: 1;" transform="translate(0,277.5)">0.4</text></g><g class="ytick"><text text-anchor="end" x="55.8" y="5.6" style="font-family: Geist; font-size: 16px; fill: rgb(255, 255, 255); fill-opacity: 1; white-space: pre; opacity: 1;" transform="translate(0,207.5)">0.6</text></g><g class="ytick"><text text-anchor="end" x="55.8" y="5.6" style="font-family: Geist; font-size: 16px; fill: rgb(255, 255, 255); fill-opacity: 1; white-space: pre; opacity: 1;" transform="translate(0,137.5)">0.8</text></g><g class="ytick"><text text-anchor="end" x="55.8" y="5.6" style="font-family: Geist; font-size: 16px; fill: rgb(255, 255, 255); fill-opacity: 1; white-space: pre; opacity: 1;" transform="translate(0,67.5)">1</text></g></g><g class="overaxes-above"/></g></g><g class="polarlayer"/><g class="smithlayer"/><g class="ternarylayer"/><g class="geolayer"/><g class="funnelarealayer"/><g class="pielayer"/><g class="iciclelayer"/><g class="treemaplayer"/><g class="sunburstlayer"/><g class="glimages"/><defs id="topdefs-40d551"><g class="clips"/><clipPath id="legend40d551"><rect width="155" height="79" x="0" y="0"/></clipPath></defs><g class="layer-above"><g class="imagelayer"/><g class="shapelayer"><g class="shape-group" data-index="0" clip-path="url(#clip40d551xy)"><path data-index="0" fill-rule="evenodd" d="M85,435L470,50" style="opacity: 1; stroke: rgb(255, 255, 255); stroke-opacity: 0.658824; fill: rgb(0, 0, 0); fill-opacity: 0; stroke-dasharray: 3px, 3px; stroke-width: 2px;"/></g></g></g><g class="infolayer"><g class="legend" pointer-events="all" transform="translate(335,356)"><rect class="bg" shape-rendering="crispEdges" style="stroke: rgb(255, 255, 255); stroke-opacity: 0; fill: rgb(255, 255, 255); fill-opacity: 0; stroke-width: 0px;" width="155" height="79" x="0" y="0"/><g class="scrollbox" transform="" clip-path="url(#legend40d551)"><text class="legendtitletext" text-anchor="start" x="2" y="20.8" style="font-family: Geist; font-size: 16px; fill: rgb(255, 255, 255); fill-opacity: 1; white-space: pre;">Sample (AUC)</text><g class="groups" transform=""><g class="traces" transform="translate(0,37.7)" style="opacity: 1;"><text class="legendtext" text-anchor="start" x="40" y="6.24" style="font-family: Geist; font-size: 16px; fill: rgb(255, 255, 255); fill-opacity: 1; white-space: pre;">Training (0.912)</text><g class="layers" style="opacity: 1;"><g class="legendfill"/><g class="legendlines"><path class="js-line" d="M5,0h30" style="fill: none; stroke: rgb(67, 164, 172); stroke-opacity: 1; stroke-width: 2px;"/></g><g class="legendsymbols"><g class="legendpoints"/></g></g><rect class="legendtoggle" x="0" y="-11.9" width="149.765625" height="23.8" style="fill: rgb(0, 0, 0); fill-opacity: 0;"/></g></g><g class="groups" transform=""><g class="traces" transform="translate(0,61.5)" style="opacity: 1;"><text class="legendtext" text-anchor="start" x="40" y="6.24" style="font-family: Geist; font-size: 16px; fill: rgb(255, 255, 255); fill-opacity: 1; white-space: pre;">Test (0.750)</text><g class="layers" style="opacity: 1;"><g class="legendfill"/><g class="legendlines"><path class="js-line" d="M5,0h30" style="fill: none; stroke: rgb(250, 152, 96); stroke-opacity: 1; stroke-width: 2px;"/></g><g class="legendsymbols"><g class="legendpoints"/></g></g><rect class="legendtoggle" x="0" y="-11.9" width="149.765625" height="23.8" style="fill: rgb(0, 0, 0); fill-opacity: 0;"/></g></g></g><rect class="scrollbar" rx="20" ry="3" width="0" height="0" style="fill: rgb(128, 139, 164); fill-opacity: 1;" x="0" y="0"/></g><g class="g-gtitle"><text class="gtitle" x="65" y="25" text-anchor="start" dy="0em" style="font-family: Geist; font-size: 16px; fill: rgb(255, 255, 255); opacity: 1; font-weight: normal; white-space: pre;"><tspan style="font-weight:bold">CART</tspan></text></g><g class="g-xtitle"><text class="xtitle" x="277.5" y="493" text-anchor="middle" style="font-family: Geist; font-size: 16px; fill: rgb(255, 255, 255); opacity: 1; font-weight: normal; white-space: pre;">False Positive Rate</text></g><g class="g-ytitle"><text class="ytitle" transform="rotate(-90,23,242.5)" x="23" y="242.5" text-anchor="middle" style="font-family: Geist; font-size: 16px; fill: rgb(255, 255, 255); opacity: 1; font-weight: normal; white-space: pre;">True Positive Rate</text></g></g></svg>